<?xml version="1.0" encoding="UTF-8" standalone="no"?>
<!-- Created with Inkscape (http://www.inkscape.org/) -->

<svg
   xmlns:dc="http://purl.org/dc/elements/1.1/"
   xmlns:cc="http://creativecommons.org/ns#"
   xmlns:rdf="http://www.w3.org/1999/02/22-rdf-syntax-ns#"
   xmlns:svg="http://www.w3.org/2000/svg"
   xmlns="http://www.w3.org/2000/svg"
   xmlns:sodipodi="http://sodipodi.sourceforge.net/DTD/sodipodi-0.dtd"
   xmlns:inkscape="http://www.inkscape.org/namespaces/inkscape"
   width="85.201324"
   height="91.428574"
   id="svg2"
   version="1.1"
   inkscape:version="0.92.2 (5c3e80d, 2017-08-06)"
   sodipodi:docname="Cookiecutter.svg"
   inkscape:export-filename="/Users/audreyr/code/cookiecutter-repos/cookiecutter/logo/cookiecutter-logo-large.png"
   inkscape:export-xdpi="720.44519"
   inkscape:export-ydpi="720.44519">
  <defs
     id="defs4" />
  <sodipodi:namedview
     id="base"
     pagecolor="#ffffff"
     bordercolor="#666666"
     borderopacity="1.0"
     inkscape:pageopacity="0.0"
     inkscape:pageshadow="2"
     inkscape:zoom="1.4"
     inkscape:cx="192.35078"
     inkscape:cy="-3.1633173"
     inkscape:document-units="px"
     inkscape:current-layer="layer1"
     showgrid="false"
     inkscape:window-width="1200"
     inkscape:window-height="671"
     inkscape:window-x="251"
     inkscape:window-y="0"
     inkscape:window-maximized="0"
     fit-margin-top="0"
     fit-margin-left="0"
     fit-margin-right="0"
     fit-margin-bottom="0" />
  <metadata
     id="metadata7">
    <rdf:RDF>
      <cc:Work
         rdf:about="">
        <dc:format>image/svg+xml</dc:format>
        <dc:type
           rdf:resource="http://purl.org/dc/dcmitype/StillImage" />
        <dc:title></dc:title>
      </cc:Work>
    </rdf:RDF>
  </metadata>
  <g
     inkscape:label="Layer 1"
     inkscape:groupmode="layer"
     id="layer1"
     transform="translate(-81.428571,-480.93363)">
    <path
       sodipodi:type="arc"
       style="fill:#d4aa00;fill-opacity:1;stroke:none"
       id="path3054"
       sodipodi:cx="115.71429"
       sodipodi:cy="528.79077"
       sodipodi:rx="45.714287"
       sodipodi:ry="45.714287"
       d="m 155.20132,551.82488 a 45.714287,45.714287 0 0 1 -49.60692,21.54598 45.714287,45.714287 0 0 1 -35.442172,-40.85252 45.714287,45.714287 0 0 1 28.330783,-46.06997 45.714287,45.714287 0 0 1 52.449299,13.19645 l -35.21802,29.14595 z"
       sodipodi:start="0.52807444"
       sodipodi:end="5.5918484"
       transform="translate(11.428571,-2.1428571)" />
    <path
       sodipodi:type="arc"
       style="fill:#000000;fill-opacity:1;stroke:none"
       id="path3082"
       sodipodi:cx="128.54192"
       sodipodi:cy="512.18311"
       sodipodi:rx="4.2931485"
       sodipodi:ry="4.2931485"
       d="m 132.25025,514.3463 a 4.2931485,4.2931485 0 0 1 -5.83792,1.56454 4.2931485,4.2931485 0 0 1 -1.61724,-5.82354 4.2931485,4.2931485 0 0 1 5.80868,-1.66981 4.2931485,4.2931485 0 0 1 1.72225,5.79334 l -3.7841,-2.02772 z"
       sodipodi:start="0.52807444"
       sodipodi:end="0.49191819"
       transform="matrix(1.1461694,0,0,1.1461694,-18.283812,-77.600061)" />
    <path
       sodipodi:nodetypes="sssssssssscssscc"
       inkscape:connector-curvature="0"
       id="path3143"
       d="m 136.58357,564.17632 c -2.57545,-2.84584 -1.54092,-10.17126 1.43642,-10.17126 1.41775,0 5.1897,8.82505 4.519,10.57287 -0.76591,1.99595 -3.98193,1.77907 -5.95542,-0.40161 z M 98.327543,530.60235 c -0.296048,-0.77148 0.44849,-3.69648 1.654529,-6.5 1.926428,-4.4781 2.550248,-5.09729 5.135398,-5.09729 3.93442,0 6.81111,1.65512 6.81111,3.91882 0,2.64257 -7.46886,9.08118 -10.53427,9.08118 -1.39067,0 -2.770719,-0.63122 -3.066767,-1.40271 z m 9.851037,-35.25957 c -2.00561,-0.80928 -1.44771,-2.97815 1.21482,-4.72271 3.06867,-2.01067 4.83386,-2.02904 8.58484,-0.0893 3.22475,1.66758 3.85604,3.91279 1.36855,4.86733 -1.85425,0.71155 -9.35988,0.67439 -11.16821,-0.0553 z"
       style="fill:#715a00;fill-opacity:1" />
  </g>
</svg>
