<?xml version="1.0" encoding="UTF-8" standalone="no"?>
<!-- Created with Inkscape (http://www.inkscape.org/) -->

<svg
   xmlns:dc="http://purl.org/dc/elements/1.1/"
   xmlns:cc="http://creativecommons.org/ns#"
   xmlns:rdf="http://www.w3.org/1999/02/22-rdf-syntax-ns#"
   xmlns:svg="http://www.w3.org/2000/svg"
   xmlns="http://www.w3.org/2000/svg"
   xmlns:sodipodi="http://sodipodi.sourceforge.net/DTD/sodipodi-0.dtd"
   xmlns:inkscape="http://www.inkscape.org/namespaces/inkscape"
   version="1.1"
   id="svg2"
   width="169.33333"
   height="321.33334"
   viewBox="0 0 169.33333 321.33334"
   sodipodi:docname="Jython.svg"
   inkscape:version="0.92+devel unknown">
  <metadata
     id="metadata8">
    <rdf:RDF>
      <cc:Work
         rdf:about="">
        <dc:format>image/svg+xml</dc:format>
        <dc:type
           rdf:resource="http://purl.org/dc/dcmitype/StillImage" />
        <dc:title></dc:title>
      </cc:Work>
    </rdf:RDF>
  </metadata>
  <defs
     id="defs6" />
  <sodipodi:namedview
     pagecolor="#ffffff"
     bordercolor="#666666"
     inkscape:document-rotation="0"
     borderopacity="1"
     objecttolerance="10"
     gridtolerance="10"
     guidetolerance="10"
     inkscape:pageopacity="0"
     inkscape:pageshadow="2"
     inkscape:window-width="1848"
     inkscape:window-height="1056"
     id="namedview4"
     showgrid="false"
     inkscape:zoom="2.4865144"
     inkscape:cx="84.666664"
     inkscape:cy="160.66667"
     inkscape:window-x="72"
     inkscape:window-y="0"
     inkscape:window-maximized="1"
     inkscape:current-layer="g10" />
  <g
     inkscape:groupmode="layer"
     inkscape:label="Image"
     id="g10">
    <g
       transform="matrix(1.3271809,0,0,1.3271809,-169.03865,-519.20802)"
       id="g4569">
      <path
         style="fill:#a8d135"
         inkscape:connector-curvature="0"
         d="m 235.32,579.96 c 1.9256,-2.0497 2.4186,-3.8631 2.7888,-10.258 0.53647,-9.2672 -1.2383,-14.716 -5.296,-16.258 -5.5308,-2.1028 -5.4833,-2.2242 -5.4833,14.006 v 15 h 2.8257 c 1.718,0 3.7426,-0.97601 5.1648,-2.4899 z m -68.99,40.83 c -11.326,-2.2163 -22.734,-7.9318 -27.447,-13.752 l -3.0534,-3.7706 -0.30984,-30.659 c -0.17041,-16.862 -0.0357,-32.131 0.29932,-33.93 1.4096,-7.5698 12.424,-14.553 27.925,-17.705 8.555,-1.7394 9.5384,-1.4099 9.5701,3.2071 0.0111,1.6228 -0.73439,2.3998 -2.7347,2.8503 -11.029,2.4838 -18.262,5.556 -21.488,9.1263 -0.95597,1.058 -2.0143,3.3046 -2.3519,4.9924 -0.51382,2.5691 -0.0281,3.717 2.9834,7.0503 5.3718,5.946 16.512,9.4171 30.607,9.537 11.499,0.0978 18.721,-1.2468 26.725,-4.9752 12.443,-5.7963 12.363,-15.568 -0.17597,-21.436 -3.4712,-1.6244 -9.0315,-3.4593 -12.356,-4.0776 -6.0132,-1.1183 -7.1313,-2.1381 -7.1795,-6.5487 -0.034,-3.1092 17.967,0.009 27.731,4.8038 7.003,3.4388 11.062,7.9804 11.934,13.353 0.52613,3.2422 0.89131,3.593 3.7403,3.593 1.7365,0 5.1627,1.0125 7.6137,2.25 3.5633,1.7991 5.0497,3.4206 7.4169,8.0913 2.5855,5.1014 2.9661,6.938 3.0054,14.5 0.0542,10.422 -2.0312,16.701 -6.9926,21.058 -3.177,2.7895 -8.8353,5.0826 -12.573,5.0956 -1.1908,0.004 -1.7685,1.3381 -2.216,5.1167 -1.0414,8.7933 -7.4957,14.884 -20.82,19.645 -6.5348,2.3355 -9.024,2.6529 -22.354,2.8506 -8.25,0.12236 -16.125,0.002 -17.5,-0.26672 z"
         id="path4563" />
      <path
         style="fill:#37903f"
         inkscape:connector-curvature="0"
         d="m 152.08,416.17 c 2.0048,-1.5512 1.5248,-4.7223 -0.71482,-4.7223 -2.0228,0 -4.0352,2.6945 -4.0352,5.4029 0,1.5849 2.2363,1.2645 4.75,-0.68055 z m 31.347,127.47 c -2.8031,-5.4946 -5.0245,-14.846 -5.6666,-23.856 -0.76433,-10.724 -1.1815,-12.333 -3.1994,-12.338 -2.8448,-0.006 -8.0264,-3.6999 -9.6824,-6.9024 -3.8429,-7.4314 -0.10747,-27.98 8.4822,-46.661 4.7669,-10.367 7.9692,-20.459 7.9692,-25.115 0,-2.5387 -0.82184,-4.2934 -3.0584,-6.53 -3.0487,-3.0487 -3.0861,-3.0567 -11.75,-2.512 -4.8995,0.30805 -11.269,1.4578 -14.598,2.6354 -8.1075,2.8673 -9.5934,2.7538 -9.5934,-0.73296 0,-4.636 3.0051,-12.029 6.1798,-15.204 2.5768,-2.5768 3.7078,-2.9741 8.4667,-2.9741 9.4372,0 29.329,9.9021 34.153,17.001 3.7286,5.4876 2.711,9.8603 -5.526,23.744 -13.319,22.451 -16.356,36.125 -10.509,47.317 6.9263,13.259 23.645,12.778 27.694,-0.79596 0.48656,-1.6311 -0.0125,-2.912 -1.8504,-4.75 -4.6677,-4.6677 -10.793,-2.7587 -14.376,4.4804 -3.189,6.4423 -8.2311,4.8073 -8.2311,-2.6692 0,-8.2482 3.9652,-12.328 11.982,-12.328 5.2296,0 8.8726,1.5001 12.768,5.2575 2.6419,2.5483 3.25,3.912 3.25,7.2886 0,7.3783 -7.297,15.155 -17.479,18.629 l -5.0209,1.713 0.22328,16.129 c 0.1228,8.8711 0.64902,17.671 1.1694,19.556 1.2352,4.4733 0.61439,4.3408 -1.7957,-0.38343 z"
         id="path4533" />
    </g>
  </g>
</svg>
