<?xml version="1.0" encoding="UTF-8" standalone="no"?>
<!-- Created with Inkscape (http://www.inkscape.org/) -->

<svg
   xmlns:dc="http://purl.org/dc/elements/1.1/"
   xmlns:cc="http://creativecommons.org/ns#"
   xmlns:rdf="http://www.w3.org/1999/02/22-rdf-syntax-ns#"
   xmlns:svg="http://www.w3.org/2000/svg"
   xmlns="http://www.w3.org/2000/svg"
   xmlns:sodipodi="http://sodipodi.sourceforge.net/DTD/sodipodi-0.dtd"
   xmlns:inkscape="http://www.inkscape.org/namespaces/inkscape"
   version="1.1"
   id="svg2"
   xml:space="preserve"
   width="279.55466"
   height="240.46947"
   viewBox="0 0 279.55466 240.46947"
   sodipodi:docname="OpenStack.svg"
   inkscape:version="0.92+devel unknown"><metadata
     id="metadata8"><rdf:RDF><cc:Work
         rdf:about=""><dc:format>image/svg+xml</dc:format><dc:type
           rdf:resource="http://purl.org/dc/dcmitype/StillImage" /><dc:title></dc:title></cc:Work></rdf:RDF></metadata><defs
     id="defs6"><clipPath
       clipPathUnits="userSpaceOnUse"
       id="clipPath18"><path
         d="M 0,612 H 792 V 0 H 0 Z"
         id="path16"
         inkscape:connector-curvature="0" /></clipPath><clipPath
       clipPathUnits="userSpaceOnUse"
       id="clipPath26"><path
         d="M 294.667,396.757 H 478.945 V 216.404 H 294.667 Z"
         id="path24"
         inkscape:connector-curvature="0" /></clipPath></defs><sodipodi:namedview
     pagecolor="#ffffff"
     bordercolor="#666666"
     inkscape:document-rotation="0"
     borderopacity="1"
     objecttolerance="10"
     gridtolerance="10"
     guidetolerance="10"
     inkscape:pageopacity="0"
     inkscape:pageshadow="2"
     inkscape:window-width="1848"
     inkscape:window-height="1056"
     id="namedview4"
     showgrid="false"
     fit-margin-top="0"
     fit-margin-left="0"
     fit-margin-right="0"
     fit-margin-bottom="0"
     inkscape:zoom="0.97916667"
     inkscape:cx="135.11068"
     inkscape:cy="119.46014"
     inkscape:window-x="72"
     inkscape:window-y="0"
     inkscape:window-maximized="1"
     inkscape:current-layer="g10" /><g
     id="g10"
     inkscape:groupmode="layer"
     inkscape:label="OpenStack"
     transform="matrix(1.3333333,0,0,-1.3333333,-392.88932,529.00932)"><g
       id="g12"><g
         id="g14"
         clip-path="url(#clipPath18)"><g
           id="g20"><g
             id="g22" /><g
             id="g42"><g
               clip-path="url(#clipPath26)"
               opacity="0.979996"
               id="g40"><g
                 transform="translate(461.8233,396.757)"
                 id="g30"><path
                   d="m 0,0 h -150.035 c -9.417,0 -17.122,-7.705 -17.122,-17.122 v -40.347 h 41.616 v 6.593 c 0,5.114 4.146,9.261 9.261,9.261 h 82.525 c 5.115,0 9.261,-4.147 9.261,-9.261 v -6.593 h 41.616 v 40.347 C 17.122,-7.705 9.417,0 0,0"
                   style="fill:#ed1844;fill-opacity:1;fill-rule:nonzero;stroke:none"
                   id="path28"
                   inkscape:connector-curvature="0" /></g><g
                 transform="translate(437.3297,267.2809)"
                 id="g34"><path
                   d="m 0,0 c 0,-5.115 -4.146,-9.261 -9.261,-9.261 h -82.526 c -5.114,0 -9.261,4.146 -9.261,9.261 v 6.592 h -41.615 v -40.347 c 0,-9.417 7.705,-17.121 17.122,-17.121 H 24.494 c 9.417,0 17.121,7.704 17.121,17.121 V 6.592 H 0 Z"
                   style="fill:#ed1844;fill-opacity:1;fill-rule:nonzero;stroke:none"
                   id="path32"
                   inkscape:connector-curvature="0" /></g><path
                 d="m 336.282,327.389 h -41.615 v -41.616 h 41.615 z"
                 style="fill:#ed1844;fill-opacity:1;fill-rule:nonzero;stroke:none"
                 id="path36"
                 inkscape:connector-curvature="0" /><path
                 d="M 478.945,327.389 H 437.33 v -41.616 h 41.615 z"
                 style="fill:#ed1844;fill-opacity:1;fill-rule:nonzero;stroke:none"
                 id="path38"
                 inkscape:connector-curvature="0" /></g></g></g><g
           id="g44"
           transform="translate(495.13,218.6659)"><path
             d="m 0,0 c -3.828,0 -6.942,3.114 -6.942,6.942 0,3.828 3.114,6.942 6.942,6.942 3.828,0 6.942,-3.114 6.942,-6.942 C 6.942,3.114 3.828,0 0,0 m 9.203,6.942 c 0,5.075 -4.128,9.203 -9.203,9.203 -5.075,0 -9.203,-4.128 -9.203,-9.203 0,-5.075 4.128,-9.203 9.203,-9.203 5.075,0 9.203,4.128 9.203,9.203"
             style="fill:#ed1844;fill-opacity:1;fill-rule:nonzero;stroke:none"
             id="path46"
             inkscape:connector-curvature="0" /></g><g
           id="g48"
           transform="translate(496.701,227.2242)"><path
             d="m 0,0 c 0,-0.811 -0.515,-1.353 -1.469,-1.353 h -1.378 v 2.719 h 1.339 C -0.554,1.366 0,0.914 0,0.013 Z m 1.882,0.052 v 0.051 c 0,0.889 -0.271,1.598 -0.762,2.088 -0.566,0.567 -1.403,0.863 -2.447,0.863 h -3.387 v -9.018 h 1.867 v 2.962 h 1.171 l 1.663,-2.962 h 2.139 l -1.92,3.349 c 0.992,0.438 1.676,1.302 1.676,2.667"
             style="fill:#ed1844;fill-opacity:1;fill-rule:nonzero;stroke:none"
             id="path50"
             inkscape:connector-curvature="0" /></g></g></g></g></svg>