<?xml version="1.0" encoding="UTF-8" standalone="no"?>
<!-- Generator: Adobe Illustrator 13.0.1, SVG Export Plug-In . SVG Version: 6.00 Build 14948)  -->

<svg
   xmlns:dc="http://purl.org/dc/elements/1.1/"
   xmlns:cc="http://creativecommons.org/ns#"
   xmlns:rdf="http://www.w3.org/1999/02/22-rdf-syntax-ns#"
   xmlns:svg="http://www.w3.org/2000/svg"
   xmlns="http://www.w3.org/2000/svg"
   xmlns:sodipodi="http://sodipodi.sourceforge.net/DTD/sodipodi-0.dtd"
   xmlns:inkscape="http://www.inkscape.org/namespaces/inkscape"
   version="1.1"
   id="Layer_1"
   x="0px"
   y="0px"
   width="40.685001"
   height="40.686001"
   viewBox="0 0 40.685 40.686"
   enable-background="new 0 0 158.253 40.686"
   xml:space="preserve"
   sodipodi:docname="Plone.svg"
   inkscape:version="0.92+devel unknown"><metadata
     id="metadata37"><rdf:RDF><cc:Work
         rdf:about=""><dc:format>image/svg+xml</dc:format><dc:type
           rdf:resource="http://purl.org/dc/dcmitype/StillImage" /><dc:title></dc:title></cc:Work></rdf:RDF></metadata><defs
     id="defs35" /><sodipodi:namedview
     pagecolor="#ffffff"
     bordercolor="#666666"
     inkscape:document-rotation="0"
     borderopacity="1"
     objecttolerance="10"
     gridtolerance="10"
     guidetolerance="10"
     inkscape:pageopacity="0"
     inkscape:pageshadow="2"
     inkscape:window-width="1920"
     inkscape:window-height="983"
     id="namedview33"
     showgrid="false"
     fit-margin-top="0"
     fit-margin-left="0"
     fit-margin-right="0"
     fit-margin-bottom="0"
     inkscape:zoom="7.0406807"
     inkscape:cx="79.027503"
     inkscape:cy="20.298"
     inkscape:window-x="0"
     inkscape:window-y="27"
     inkscape:window-maximized="1"
     inkscape:current-layer="g30" /><g
     id="g30"
     transform="translate(-0.099,0.045)"><circle
       fill="#0095D3"
       cx="17.815001"
       cy="11.516"
       r="4.402"
       id="circle12" /><path
       fill="#0095D3"
       d="m 31.167,20.311 c 0,2.433 -1.969,4.401 -4.403,4.401 -2.427,0 -4.401,-1.97 -4.401,-4.401 0,-2.433 1.975,-4.401 4.401,-4.401 2.436,-10e-4 4.403,1.969 4.403,4.401 z"
       id="path14"
       inkscape:connector-curvature="0" /><circle
       fill="#0095D3"
       cx="17.801001"
       cy="29.131001"
       r="4.402"
       id="circle16" /><g
       id="g20"><path
         fill="#0095D3"
         d="M 20.441,-0.045 C 9.207,-0.044 0.1,9.063 0.099,20.298 0.1,31.532 9.207,40.639 20.441,40.641 31.676,40.639 40.782,31.534 40.784,20.298 40.783,9.063 31.677,-0.044 20.441,-0.045 Z m 11.45,31.792 C 28.954,34.681 24.919,36.489 20.441,36.49 15.963,36.489 11.928,34.679 8.991,31.747 6.058,28.81 4.25,24.775 4.249,20.298 4.25,15.82 6.058,11.785 8.992,8.848 c 2.937,-2.934 6.972,-4.742 11.45,-4.743 4.478,10e-4 8.513,1.81 11.45,4.743 2.934,2.938 4.742,6.973 4.743,11.45 -0.002,4.477 -1.81,8.512 -4.744,11.449 z"
         id="path18"
         inkscape:connector-curvature="0" /></g></g></svg>