<?xml version="1.0" encoding="UTF-8" standalone="no"?>
<!-- Created with Inkscape (http://www.inkscape.org/) -->

<svg
   xmlns:dc="http://purl.org/dc/elements/1.1/"
   xmlns:cc="http://creativecommons.org/ns#"
   xmlns:rdf="http://www.w3.org/1999/02/22-rdf-syntax-ns#"
   xmlns:svg="http://www.w3.org/2000/svg"
   xmlns="http://www.w3.org/2000/svg"
   xmlns:sodipodi="http://sodipodi.sourceforge.net/DTD/sodipodi-0.dtd"
   xmlns:inkscape="http://www.inkscape.org/namespaces/inkscape"
   version="1.1"
   id="svg2"
   width="800"
   height="360"
   viewBox="0 0 800 360"
   sodipodi:docname="PonyORM.svg"
   inkscape:version="0.92+devel unknown">
  <metadata
     id="metadata8">
    <rdf:RDF>
      <cc:Work
         rdf:about="">
        <dc:format>image/svg+xml</dc:format>
        <dc:type
           rdf:resource="http://purl.org/dc/dcmitype/StillImage" />
        <dc:title></dc:title>
      </cc:Work>
    </rdf:RDF>
  </metadata>
  <defs
     id="defs6" />
  <sodipodi:namedview
     pagecolor="#ffffff"
     bordercolor="#666666"
     inkscape:document-rotation="0"
     borderopacity="1"
     objecttolerance="10"
     gridtolerance="10"
     guidetolerance="10"
     inkscape:pageopacity="0"
     inkscape:pageshadow="2"
     inkscape:window-width="1848"
     inkscape:window-height="1056"
     id="namedview4"
     showgrid="false"
     inkscape:zoom="0.80125"
     inkscape:cx="285.67768"
     inkscape:cy="81.088891"
     inkscape:window-x="72"
     inkscape:window-y="0"
     inkscape:window-maximized="1"
     inkscape:current-layer="g10" />
  <g
     inkscape:groupmode="layer"
     inkscape:label="Image"
     id="g10">
    <path
       style="fill:#020202;stroke-width:1.33333337"
       d="m 504,335.28843 c 0,-0.42446 4.62536,-15.28799 10.27859,-33.03008 6.25341,-19.62572 10.23324,-34.34692 10.1628,-37.59168 -0.0675,-3.10906 -3.46619,-13.95242 -8.14931,-26 -6.98305,-17.96431 -26.95875,-77.54627 -26.95875,-80.41048 0,-0.56262 5.4673,-0.85042 12.14955,-0.63956 L 513.63243,158 l 6.96565,20 c 8.15937,23.42743 20.59281,55.46256 22.21581,57.23971 1.10784,1.21304 10.21831,-17.0751 27.85046,-55.90638 4.66178,-10.26666 9.04288,-19.41666 9.73574,-20.33333 1.73352,-2.29344 46.26658,-2.40652 46.26658,-0.11747 0,0.85206 -13.44879,33.10206 -29.88619,71.66667 -16.4374,38.5646 -33.19577,77.91747 -37.24083,87.4508 l -7.35464,17.33333 -24.0925,0.36342 C 514.84163,335.89663 504,335.71288 504,335.28843 Z M 288.38324,312.071 c -16.36279,-4.41003 -28.87967,-14.43987 -36.22881,-29.03033 -8.63846,-17.15012 -10.07678,-48.23626 -3.43678,-74.27768 6.44196,-25.26466 25.43966,-45.75023 49.22698,-53.08238 13.56809,-4.18218 34.81329,-4.20257 43.82804,-0.042 13.79277,6.36571 23.25821,17.36218 29.06541,33.7667 2.67137,7.54625 3.04039,11.11582 3.02496,29.26138 -0.0399,46.88884 -13.77964,77.92535 -40.27075,90.96687 -7.8733,3.87601 -10.1441,4.35447 -22.18176,4.67369 -9.99265,0.265 -15.86152,-0.30494 -23.02729,-2.23622 z m 24.15051,-18.20476 c 12.60245,-12.97633 22.04677,-54.16197 20.41782,-89.03985 -1.16093,-24.85694 -5.68042,-35.49306 -15.08169,-35.49306 -12.69824,0 -23.93107,23.93808 -29.32401,62.49188 -2.54299,18.17959 -1.93248,42.47876 1.33134,52.98964 4.39863,14.16546 13.97446,17.99104 22.65654,9.05139 z m -140.00138,10.46709 c 0.40935,-2.01666 2.5642,-17.16666 4.78858,-33.66666 2.22438,-16.5 4.92466,-36.3 6.00065,-44 1.07597,-7.7 4.3942,-33.5 7.37384,-57.33334 2.97963,-23.83333 5.65391,-44.83333 5.94283,-46.66666 0.28892,-1.83334 1.19521,-9.11154 2.01398,-16.17378 l 1.4887,-12.84045 -13.74707,-19.159553 C 171.29397,53.447829 164.45693,41.540371 165.66521,38.391636 c 1.29598,-3.377255 48.57831,-11.644187 93.60028,-16.365249 29.43062,-3.086134 51.74956,-4.033524 93.40118,-3.96468 33.80505,0.05588 38.43502,0.336822 48.99056,2.972754 20.81546,5.198048 33.93758,14.199396 39.84077,27.329472 4.38272,9.748172 4.36765,26.602567 -0.0327,36.557467 -9.06453,20.50682 -45.20297,41.40781 -91.53617,52.94077 -26.03124,6.47954 -40.31895,8.03576 -74.26103,8.08856 l -31.66518,0.0493 -0.61647,4 c -0.33905,2.2 -0.97481,9.4 -1.41281,16 -0.438,6.6 -1.03139,14.4 -1.31866,17.33333 -0.28726,2.93333 -0.87322,11.63333 -1.30212,19.33333 -1.35602,24.34459 -2.05877,36.38974 -2.68373,46 -0.33383,5.13334 -1.01156,16.83334 -1.50607,26 -0.49452,9.16667 -1.049,18.16667 -1.23218,20 -0.18319,1.83334 -0.39259,5.58334 -0.46534,8.33334 L 233.33333,308 h -30.77261 -30.7726 z M 305.25868,121.36011 c 38.48948,-4.41614 75.13413,-21.828666 82.05656,-38.991011 3.17301,-7.86665 3.01044,-19.207114 -0.3696,-25.781407 -5.07765,-9.876224 -13.98405,-15.86146 -29.69228,-19.95366 -12.75647,-3.323227 -57.78695,-3.034113 -85.07649,0.546224 -11.26939,1.478521 -20.6749,2.873328 -20.90114,3.099569 -0.22624,0.226242 -1.0752,7.905834 -1.88658,17.065762 -0.81138,9.159926 -1.7171,18.754413 -2.01271,21.32108 -0.29561,2.566666 -0.8974,10.066666 -1.33731,16.666666 -0.4399,6.599997 -1.14081,15.094037 -1.55757,18.875637 -0.65729,5.9642 -0.43013,6.94536 1.71368,7.40158 5.86133,1.24732 47.55009,1.07056 59.06344,-0.25044 z M 275.79844,81.71984 c -5.13795,-1.239896 -7.54473,-19.838613 -3.38815,-26.182363 2.73055,-4.167342 8.21723,-5.20312 11.87447,-2.241665 2.31693,1.876131 2.81279,3.713632 2.77512,10.283668 -0.0668,11.661175 -5.02359,19.645683 -11.26144,18.14036 z m 23.40821,-5.861509 c -1.95316,-2.159503 -2.50193,-4.652288 -2.37526,-10.78951 0.26466,-12.824709 7.39984,-19.504261 13.8957,-13.008396 2.52595,2.525948 2.82619,4.039455 2.37727,11.984052 -0.36659,6.487866 -1.23059,9.885034 -3.01573,11.857586 -3.2078,3.544589 -7.6527,3.526726 -10.88198,-0.04373 z M 376.44031,304.1318 c 1.29577,-6.47888 8.63632,-60.95097 10.88824,-80.79847 1.16486,-10.26666 2.3504,-20.46666 2.6345,-22.66666 0.28412,-2.2 0.94778,-9.69972 1.47478,-16.66606 0.527,-6.96632 1.0925,-13.86632 1.25668,-15.33333 0.16417,-1.467 0.37506,-4.61728 0.46866,-7.00061 l 0.17016,-4.33334 h 13.86982 13.86981 l 7.83695,12.33334 c 4.31033,6.78333 12.8926,20.85964 19.07173,31.28068 6.17912,10.42104 11.33395,18.82104 11.45515,18.66666 0.35137,-0.44753 1.81934,-41.97702 1.85978,-52.61401 l 0.0368,-9.66667 h 11.53971 11.53969 l -0.97169,51 c -0.53443,28.05 -1.16427,53.4 -1.39964,56.33334 -0.23539,2.93333 -0.55801,11.93333 -0.71695,20 -0.15894,8.06666 -0.60048,16.61666 -0.98117,19 L 479.65109,308 h -12.24686 -12.24686 l -3.01508,-7.27441 c -4.9616,-11.97075 -37.58714,-66.5033 -38.32189,-64.05382 -0.21913,0.73052 -2.23151,15.12823 -4.47195,31.9949 -2.24044,16.86666 -4.42716,32.61666 -4.85937,35 L 403.70323,308 h -14.01828 -14.01828 z"
       id="path4271"
       inkscape:connector-curvature="0" />
  </g>
</svg>
