<?xml version="1.0" encoding="UTF-8" standalone="no"?>
<!-- Generator: Adobe Illustrator 16.0.0, SVG Export Plug-In . SVG Version: 6.00 Build 0)  -->

<svg
   xmlns:dc="http://purl.org/dc/elements/1.1/"
   xmlns:cc="http://creativecommons.org/ns#"
   xmlns:rdf="http://www.w3.org/1999/02/22-rdf-syntax-ns#"
   xmlns:svg="http://www.w3.org/2000/svg"
   xmlns="http://www.w3.org/2000/svg"
   xmlns:sodipodi="http://sodipodi.sourceforge.net/DTD/sodipodi-0.dtd"
   xmlns:inkscape="http://www.inkscape.org/namespaces/inkscape"
   version="1.1"
   id="Layer_1"
   x="0px"
   y="0px"
   width="651.717322667"
   height="301.496554667"
   viewBox="0.0 0.0 651.717322667 301.496554667"
   enable-background="new 0 0 841.891 595.281"
   xml:space="preserve"
   inkscape:version="0.92+devel unknown"
   sodipodi:docname="pyconlogo.svg"><sodipodi:namedview
     pagecolor="#ffffff"
     bordercolor="#666666"
     borderopacity="1"
     objecttolerance="10"
     gridtolerance="10"
     guidetolerance="10"
     inkscape:pageopacity="0"
     inkscape:pageshadow="2"
     inkscape:window-width="1848"
     inkscape:window-height="1056"
     id="namedview83"
     showgrid="false"
     inkscape:zoom="1.4611982"
     inkscape:cx="362.85875"
     inkscape:cy="26.615389"
     inkscape:window-x="72"
     inkscape:window-y="0"
     inkscape:window-maximized="1"
     inkscape:current-layer="Layer_1"
     inkscape:document-rotation="0"
     inkscape:document-units="px" /><metadata
     id="metadata87"><rdf:RDF><cc:Work
         rdf:about=""><dc:format>image/svg+xml</dc:format><dc:type
           rdf:resource="http://purl.org/dc/dcmitype/StillImage" /><dc:title /></cc:Work></rdf:RDF></metadata><defs
     id="defs85" /><polygon
     stroke-miterlimit="10"
     points="516.551,268.296 533.985,258.539 516.696,248.565 551.439,248.462 586.179,228.405 586.179,268.656 551.363,288.724 533.985,288.679 533.985,298.736 516.578,308.773 429.578,258.544 429.578,218.359 "
     id="polygon5"
     style="fill:#ffffff;stroke:#231f20;stroke-width:1.73450005;stroke-linecap:round;stroke-linejoin:round;stroke-miterlimit:10"
     transform="matrix(1.066667,0,0,1.066667,-123.1496,-157.14087)" /><polygon
     stroke-miterlimit="10"
     points="655.971,349.023 725.57,308.839 725.57,349.023 655.969,389.207 568.988,338.986 568.97,298.794 603.745,318.871 621.187,308.849 621.187,328.921 "
     id="polygon7"
     style="fill:#ffffff;stroke:#1a171b;stroke-width:1.73450005;stroke-linecap:round;stroke-linejoin:round;stroke-miterlimit:10"
     transform="matrix(1.066667,0,0,1.066667,-123.1496,-157.14087)" /><polygon
     stroke-miterlimit="10"
     points="481.78,288.679 481.78,329.011 446.98,349.101 412.179,349.101 359.981,318.964 359.981,278.783 412.195,308.628 447.462,308.628 "
     id="polygon9"
     style="fill:#ffffff;stroke:#1a171b;stroke-width:1.73450005;stroke-linecap:round;stroke-linejoin:round;stroke-miterlimit:10"
     transform="matrix(1.066667,0,0,1.066667,-123.1496,-157.14087)" /><polygon
     stroke-miterlimit="10"
     points="307.719,268.736 272.918,248.646 238.117,248.646 203.319,228.553 203.319,188.371 238.121,208.463 272.918,208.463 307.718,228.553 342.518,208.463 342.518,248.646 "
     id="polygon11"
     style="fill:#ffffff;stroke:#1a171b;stroke-width:1.73450005;stroke-linecap:round;stroke-linejoin:round;stroke-miterlimit:10"
     transform="matrix(1.066667,0,0,1.066667,-123.1496,-157.14087)" /><g
     id="g13"
     transform="matrix(1.066667,0,0,1.066667,-123.1496,-157.14087)"><polygon
       stroke-miterlimit="10"
       points="203.319,329.011 116.32,278.783 116.32,238.452 203.319,288.679 238.121,268.591 238.121,308.919 "
       id="polygon15"
       style="fill:#ffffff;stroke:#1a171b;stroke-width:1.73450005;stroke-linecap:round;stroke-linejoin:round;stroke-miterlimit:10" /><polygon
       stroke-miterlimit="10"
       points="203.319,248.499 220.593,258.763 220.593,238.526 "
       id="polygon17"
       style="fill:#ffffff;stroke:#1a171b;stroke-width:1.73450005;stroke-linecap:round;stroke-linejoin:round;stroke-miterlimit:10" /></g><g
     id="g19"
     transform="matrix(1.066667,0,0,1.066667,-123.1496,-157.14087)"><polygon
       stroke-miterlimit="10"
       points="394.781,338.472 394.781,379.238 359.981,399.332 325.182,399.332 272.98,369.193 272.982,329.011 325.182,358.564 359.98,358.564 "
       id="polygon21"
       style="fill:#ffffff;stroke:#1a171b;stroke-width:1.73450005;stroke-linecap:round;stroke-linejoin:round;stroke-miterlimit:10" /><polygon
       stroke-miterlimit="10"
       points="359.98,298.875 359.98,318.964 342.58,329.011 325.182,318.966 "
       id="polygon23"
       style="fill:#ffffff;stroke:#1a171b;stroke-width:1.73450005;stroke-linecap:round;stroke-linejoin:round;stroke-miterlimit:10" /></g><g
     id="g25"
     transform="matrix(1.066667,0,0,1.066667,-123.1496,-157.14087)"><polygon
       stroke-miterlimit="10"
       points="621.187,368.234 621.187,409 586.388,429.093 551.589,429.093 499.387,398.955 499.388,358.773 551.589,388.326 586.386,388.326 "
       id="polygon27"
       style="fill:#ffffff;stroke:#1a171b;stroke-width:1.73450005;stroke-linecap:round;stroke-linejoin:round;stroke-miterlimit:10" /><polygon
       stroke-miterlimit="10"
       points="586.386,328.636 586.386,348.726 568.986,358.773 551.589,348.728 "
       id="polygon29"
       style="fill:#ffffff;stroke:#1a171b;stroke-width:1.73450005;stroke-linecap:round;stroke-linejoin:round;stroke-miterlimit:10" /></g><line
     stroke-miterlimit="10"
     x1="93.724068"
     y1="150.78348"
     x2="93.724068"
     y2="192.25658"
     id="line31"
     style="fill:none;stroke:#1a171b;stroke-width:1.85013402;stroke-linecap:round;stroke-linejoin:round;stroke-miterlimit:10" /><line
     stroke-miterlimit="10"
     x1="130.84622"
     y1="65.219727"
     x2="130.84622"
     y2="108.08161"
     id="line33"
     style="fill:none;stroke:#1a171b;stroke-width:1.85013402;stroke-linecap:round;stroke-linejoin:round;stroke-miterlimit:10" /><line
     stroke-miterlimit="10"
     x1="167.96303"
     y1="65.219727"
     x2="167.96303"
     y2="108.08161"
     id="line35"
     style="fill:none;stroke:#1a171b;stroke-width:1.85013402;stroke-linecap:round;stroke-linejoin:round;stroke-miterlimit:10" /><line
     stroke-miterlimit="10"
     x1="205.08302"
     y1="86.649063"
     x2="205.08302"
     y2="129.51094"
     id="line37"
     style="fill:none;stroke:#1a171b;stroke-width:1.85013402;stroke-linecap:round;stroke-linejoin:round;stroke-miterlimit:10" /><line
     stroke-miterlimit="10"
     x1="223.71132"
     y1="225.32751"
     x2="223.71132"
     y2="268.81339"
     id="line39"
     style="fill:none;stroke:#1a171b;stroke-width:1.85013402;stroke-linecap:round;stroke-linejoin:round;stroke-miterlimit:10" /><line
     stroke-miterlimit="10"
     x1="260.82919"
     y1="225.32751"
     x2="260.82919"
     y2="268.81339"
     id="line41"
     style="fill:none;stroke:#1a171b;stroke-width:1.85013402;stroke-linecap:round;stroke-linejoin:round;stroke-miterlimit:10" /><line
     stroke-miterlimit="10"
     x1="465.21216"
     y1="257.07364"
     x2="465.21216"
     y2="300.55847"
     id="line43"
     style="fill:none;stroke:#1a171b;stroke-width:1.85013402;stroke-linecap:round;stroke-linejoin:round;stroke-miterlimit:10" /><line
     stroke-miterlimit="10"
     x1="502.32898"
     y1="257.07364"
     x2="502.32898"
     y2="300.55847"
     id="line45"
     style="fill:none;stroke:#1a171b;stroke-width:1.85013402;stroke-linecap:round;stroke-linejoin:round;stroke-miterlimit:10" /><line
     stroke-miterlimit="10"
     x1="316.52521"
     y1="172.06242"
     x2="316.52521"
     y2="215.54831"
     id="line47"
     style="fill:none;stroke:#1a171b;stroke-width:1.85013402;stroke-linecap:round;stroke-linejoin:round;stroke-miterlimit:10" /><line
     stroke-miterlimit="10"
     x1="354.14334"
     y1="172.06242"
     x2="354.14334"
     y2="215.54831"
     id="line49"
     style="fill:none;stroke:#1a171b;stroke-width:1.85013402;stroke-linecap:round;stroke-linejoin:round;stroke-miterlimit:10" /><line
     stroke-miterlimit="10"
     x1="576.5509"
     y1="215.15045"
     x2="576.5509"
     y2="258.0134"
     id="line51"
     style="fill:none;stroke:#1a171b;stroke-width:1.85013402;stroke-linecap:round;stroke-linejoin:round;stroke-miterlimit:10" /><line
     stroke-miterlimit="10"
     x1="539.45007"
     y1="193.71683"
     x2="539.45007"
     y2="236.58191"
     id="line53"
     style="fill:none;stroke:#1a171b;stroke-width:1.85013402;stroke-linecap:round;stroke-linejoin:round;stroke-miterlimit:10" /><line
     stroke-miterlimit="10"
     x1="520.84528"
     y1="182.91898"
     x2="520.84528"
     y2="225.78191"
     id="line55"
     style="fill:none;stroke:#1a171b;stroke-width:1.85013402;stroke-linecap:round;stroke-linejoin:round;stroke-miterlimit:10" /><line
     stroke-miterlimit="10"
     x1="427.83832"
     y1="129.04161"
     x2="427.83832"
     y2="172.52965"
     id="line57"
     style="fill:none;stroke:#1a171b;stroke-width:1.85013402;stroke-linecap:round;stroke-linejoin:round;stroke-miterlimit:10" /><line
     stroke-miterlimit="10"
     x1="446.43457"
     y1="118.63415"
     x2="446.43457"
     y2="161.51096"
     id="line59"
     style="fill:none;stroke:#1a171b;stroke-width:1.85013402;stroke-linecap:round;stroke-linejoin:round;stroke-miterlimit:10" /><line
     stroke-miterlimit="10"
     x1="465.05222"
     y1="107.88535"
     x2="465.05222"
     y2="150.62775"
     id="line61"
     style="fill:none;stroke:#1a171b;stroke-width:1.85013402;stroke-linecap:round;stroke-linejoin:round;stroke-miterlimit:10" /><polygon
     stroke-miterlimit="10"
     points="412.197,289.07 446.998,289.07 446.998,268.986 429.578,258.544 395.15,258.728 395.15,278.82 "
     id="polygon63"
     style="fill:#ffffff;stroke:#1a171b;stroke-width:1.73450005;stroke-linecap:round;stroke-linejoin:round;stroke-miterlimit:10"
     transform="matrix(1.066667,0,0,1.066667,-123.1496,-157.14087)" /><line
     stroke-miterlimit="10"
     x1="335.06708"
     y1="118.63949"
     x2="335.06708"
     y2="150.78563"
     id="line65"
     style="fill:none;stroke:#1a171b;stroke-width:1.85013402;stroke-linecap:round;stroke-linejoin:round;stroke-miterlimit:10" /><polygon
     stroke-miterlimit="10"
     points="499.387,198.359 482.216,188.371 482.216,198.359 "
     id="polygon67"
     style="fill:#ffffff;stroke:#1a171b;stroke-width:1.73450005;stroke-linecap:round;stroke-linejoin:round;stroke-miterlimit:10"
     transform="matrix(1.066667,0,0,1.066667,-123.1496,-157.14087)" /><polygon
     stroke-miterlimit="10"
     points="482.216,188.371 499.55,198.452 464.841,198.27 429.578,218.359 516.576,268.587 533.985,258.539 516.696,248.565 551.439,248.462 586.179,228.405 499.55,178.362 "
     id="polygon69"
     style="fill:#82E1E0;stroke:#1a171b;stroke-width:1.73450005;stroke-linecap:round;stroke-linejoin:round;stroke-miterlimit:10"
     transform="matrix(1.066667,0,0,1.066667,-123.1496,-157.14087)" /><polygon
     stroke-miterlimit="10"
     points="359.981,298.873 325.182,318.966 342.58,329.011 377.381,308.919 394.652,318.894 394.781,338.472 359.98,358.564 325.182,358.564 272.982,329.011 272.982,308.921 307.783,288.83 342.581,288.83 "
     id="polygon71"
     style="fill:#82E1E0;stroke:#1a171b;stroke-width:1.73450005;stroke-linecap:round;stroke-linejoin:round;stroke-miterlimit:10"
     transform="matrix(1.066667,0,0,1.066667,-123.1496,-157.14087)" /><polygon
     stroke-miterlimit="10"
     points="586.388,328.636 551.589,348.728 568.986,358.773 603.787,338.681 621.058,348.656 621.187,368.234 586.386,388.326 551.589,388.326 499.388,358.773 499.388,338.683 534.19,318.591 568.988,318.591 "
     id="polygon73"
     style="fill:#82E1E0;stroke:#1a171b;stroke-width:1.73450005;stroke-linecap:round;stroke-linejoin:round;stroke-miterlimit:10"
     transform="matrix(1.066667,0,0,1.066667,-123.1496,-157.14087)" /><polygon
     stroke-miterlimit="10"
     points="621.187,308.849 621.187,328.921 655.971,349.023 725.57,308.839 690.769,288.75 673.369,298.794 673.369,278.701 638.444,258.539 568.974,298.794 603.745,318.871 "
     id="polygon75"
     style="fill:#82E1E0;stroke:#1a171b;stroke-width:1.73450005;stroke-linecap:round;stroke-linejoin:round;stroke-miterlimit:10"
     transform="matrix(1.066667,0,0,1.066667,-123.1496,-157.14087)" /><path
     stroke-miterlimit="10"
     d="m 335.06921,97.36481 h -37.11895 l -37.12001,21.50934 v 21.35467 l 55.54029,32.06828 h 37.12214 l 37.25441,-21.51254 v -21.27254 z m 18.57921,53.83575 h -37.12108 l -18.18347,-10.93334 v -21.43147 l 36.72321,-0.19627 18.58134,10.87041 z"
     id="path77"
     inkscape:connector-curvature="0"
     style="fill:#82E1E0;stroke:#1a171b;stroke-width:1.85013402;stroke-linecap:round;stroke-linejoin:round;stroke-miterlimit:10" /><polygon
     stroke-miterlimit="10"
     points="307.718,228.553 342.518,208.463 307.719,188.371 307.719,168.278 272.918,148.187 255.953,157.982 255.953,178.218 220.904,178.218 203.319,188.371 238.121,208.463 272.918,208.463 "
     id="polygon79"
     style="fill:#82E1E0;stroke:#1a171b;stroke-width:1.73450005;stroke-linecap:round;stroke-linejoin:round;stroke-miterlimit:10"
     transform="matrix(1.066667,0,0,1.066667,-123.1496,-157.14087)" /><polygon
     stroke-miterlimit="10"
     points="116.32,238.451 203.321,288.679 238.122,268.591 203.321,248.499 220.594,238.525 220.594,218.433 203.104,208.278 168.578,208.28 "
     id="polygon81"
     style="fill:#82E1E0;stroke:#1a171b;stroke-width:1.73450005;stroke-linecap:round;stroke-linejoin:round;stroke-miterlimit:10"
     transform="matrix(1.066667,0,0,1.066667,-123.1496,-157.14087)" /></svg>