<?xml version="1.0" encoding="UTF-8" standalone="no"?>
<!-- Created with Inkscape (http://www.inkscape.org/) -->

<svg
   xmlns:dc="http://purl.org/dc/elements/1.1/"
   xmlns:cc="http://creativecommons.org/ns#"
   xmlns:rdf="http://www.w3.org/1999/02/22-rdf-syntax-ns#"
   xmlns:svg="http://www.w3.org/2000/svg"
   xmlns="http://www.w3.org/2000/svg"
   xmlns:sodipodi="http://sodipodi.sourceforge.net/DTD/sodipodi-0.dtd"
   xmlns:inkscape="http://www.inkscape.org/namespaces/inkscape"
   width="235.50458"
   height="235.5"
   id="svg2"
   sodipodi:version="0.32"
   inkscape:version="0.92+devel unknown"
   sodipodi:docname="Pyglet.svg"
   version="1.1">
  <defs
     id="defs4">
    <marker
       inkscape:stockid="TriangleOutS"
       orient="auto"
       refY="0"
       refX="0"
       id="TriangleOutS"
       style="overflow:visible">
      <path
         id="path2902"
         d="M 5.77,0 -2.88,5 V -5 Z"
         style="fill-rule:evenodd;stroke:#000000;stroke-width:1.00000003pt;marker-start:none"
         transform="scale(0.2)"
         inkscape:connector-curvature="0" />
    </marker>
    <marker
       inkscape:stockid="Arrow2Send"
       orient="auto"
       refY="0"
       refX="0"
       id="Arrow2Send"
       style="overflow:visible">
      <path
         id="path2973"
         style="font-size:12px;fill-rule:evenodd;stroke-width:0.625;stroke-linejoin:round"
         d="M 8.7185878,4.0337352 -2.2072895,0.01601326 8.7185884,-4.0017078 c -1.7454984,2.3720609 -1.7354408,5.6174519 -6e-7,8.035443 z"
         transform="matrix(-0.3,0,0,-0.3,0.69,0)"
         inkscape:connector-curvature="0" />
    </marker>
    <marker
       inkscape:stockid="Arrow1Lend"
       orient="auto"
       refY="0"
       refX="0"
       id="Arrow1Lend"
       style="overflow:visible">
      <path
         id="path3003"
         d="M 0,0 5,-5 -12.5,0 5,5 Z"
         style="fill-rule:evenodd;stroke:#000000;stroke-width:1.00000003pt;marker-start:none"
         transform="matrix(-0.8,0,0,-0.8,-10,0)"
         inkscape:connector-curvature="0" />
    </marker>
  </defs>
  <sodipodi:namedview
     id="base"
     pagecolor="#ffffff"
     bordercolor="#666666"
     borderopacity="1.0"
     gridtolerance="10000"
     guidetolerance="10"
     objecttolerance="10"
     inkscape:pageopacity="0.0"
     inkscape:pageshadow="2"
     inkscape:zoom="0.69032663"
     inkscape:cx="496.38174"
     inkscape:cy="-199.5334"
     inkscape:document-units="px"
     inkscape:current-layer="layer1"
     inkscape:window-width="1230"
     inkscape:window-height="972"
     inkscape:window-x="527"
     inkscape:window-y="27"
     inkscape:document-rotation="0"
     showgrid="false"
     fit-margin-top="0"
     fit-margin-left="0"
     fit-margin-right="0"
     fit-margin-bottom="0"
     inkscape:window-maximized="0" />
  <metadata
     id="metadata7">
    <rdf:RDF>
      <cc:Work
         rdf:about="">
        <dc:format>image/svg+xml</dc:format>
        <dc:type
           rdf:resource="http://purl.org/dc/dcmitype/StillImage" />
        <dc:title></dc:title>
      </cc:Work>
    </rdf:RDF>
  </metadata>
  <g
     inkscape:label="Layer 1"
     inkscape:groupmode="layer"
     id="layer1"
     style="display:inline"
     transform="translate(-39.928578,-87.25901)">
    <g
       id="g3882"
       transform="translate(-1.428571,-290.7142)">
      <path
         transform="translate(-80.29672,241.3815)"
         sodipodi:open="true"
         sodipodi:end="6.2783633"
         sodipodi:start="0"
         d="M 348.50263,254.34167 A 109.09647,109.09647 0 0 1 239.53767,363.43807 109.09647,109.09647 0 0 1 130.31,254.60471 109.09647,109.09647 0 0 1 239.01161,145.24591 109.09647,109.09647 0 0 1 348.50136,253.81561"
         sodipodi:ry="109.09647"
         sodipodi:rx="109.09647"
         sodipodi:cy="254.34167"
         sodipodi:cx="239.40616"
         id="path3884"
         style="fill:#ff6161;fill-opacity:1;fill-rule:nonzero;stroke:none;stroke-width:17.29999924;stroke-linecap:round;stroke-linejoin:round;stroke-miterlimit:4;stroke-dasharray:none;stroke-opacity:1"
         sodipodi:type="arc"
         sodipodi:arc-type="arc" />
      <path
         style="fill:#000000;fill-opacity:1;fill-rule:nonzero;stroke:none;stroke-width:17.29999924;stroke-linecap:round;stroke-linejoin:round;stroke-miterlimit:4;stroke-opacity:1"
         d="m 159.10715,377.97321 c -64.901461,0 -117.750001,52.84855 -117.750001,117.75 -1e-5,64.90145 52.84855,117.75001 117.750001,117.75 64.88042,0 117.7158,-52.81488 117.75,-117.6875 0,-0.0105 0,-0.0207 0,-0.0312 1e-5,-0.0104 2e-5,-0.0208 0,-0.0312 0.006,-0.18745 0.006,-0.37505 0,-0.5625 -5.2e-4,-0.10556 -0.0305,-0.207 -0.0312,-0.3125 -0.48215,-64.55207 -53.12602,-116.87499 -117.71875,-116.875 z m 0,17.3125 c 55.37448,1e-5 100.17049,44.56365 100.4375,99.9375 -0.002,0.10416 -0.002,0.20834 0,0.3125 -6.9e-4,0.0625 -6.8e-4,0.125 0,0.1875 0,55.54106 -44.89644,100.4375 -100.4375,100.4375 -55.54107,10e-6 -100.437501,-44.89643 -100.437501,-100.4375 -1e-5,-42.21588 25.94612,-78.28048 62.781251,-93.15625 -7.43279,16.62884 -10.17314,35.0634 -7.3125,51.875 0.8065,4.7397 2.29035,9.30418 4.15625,13.6875 -1.76772,9.93139 -2.19025,21.28829 -0.5,34.46875 4.12673,32.17992 20.5177,48.7904 35.9375,55.53125 15.4198,6.74086 29.8125,4.5625 29.8125,4.5625 0,10e-6 -5.1151,0.41341 0,-0.0625 4.67715,-0.43515 9.03,-0.21417 19.46875,-6.34375 3e-5,10e-6 4.09375,7.875 4.09375,7.875 2e-5,-10e-6 18.09375,-28.4375 18.09375,-28.4375 1e-5,-10e-6 -34.46875,-1.96875 -34.46875,-1.96875 3e-5,3e-5 4.125,8.09375 4.125,8.09375 -7.792,3.72371 -8.69399,3.62871 -13.65625,3.8125 -1e-5,10e-6 -9.91447,1.26619 -20.53125,-3.375 -10.61678,-4.64118 -22.1859,-14.32607 -25.71875,-41.875 -0.51633,-4.02627 -0.75295,-7.71216 -0.90625,-11.25 7.48941,6.00718 16.84004,10.24089 28.1875,11.40625 20.84185,2.14042 37.95874,-6.66123 45.09375,-21.125 7.13501,-14.46376 3.66107,-33.16827 -10.25,-47.84375 -12.06238,-12.7252 -34.08549,-15.45057 -52.71875,-4.875 -5.17904,2.93944 -9.82335,7.12902 -13.875,12.3125 0.52795,-14.41993 5.51674,-30.19108 14.28125,-42.71875 4.68796,-0.66865 9.46861,-1.03125 14.34375,-1.03125 z m 7.78125,42.78125 c 7.72482,-0.17997 14.70379,2.32452 17.625,5.40625 10.07051,10.62389 10.90794,20.99188 7.28125,28.34375 -3.62669,7.35188 -12.32248,13.11883 -27.78125,11.53125 -14.27111,-1.4656 -22.98237,-7.80354 -28.03125,-17.28125 3.24648,-12.88225 9.86665,-20.29934 16.9375,-24.3125 4.44077,-2.52041 9.33386,-3.57952 13.96875,-3.6875 z"
         id="path3886"
         inkscape:connector-curvature="0" />
    </g>
  </g>
  <g
     inkscape:groupmode="layer"
     id="layer2"
     style="display:none"
     transform="translate(-39.928578,-87.25901)">
    <rect
       style="opacity:1;fill:none;fill-opacity:1;fill-rule:nonzero;stroke:#ff0000;stroke-width:0.30000028;stroke-linecap:round;stroke-linejoin:miter;stroke-miterlimit:4;stroke-dasharray:none;stroke-opacity:1"
       id="rect3093"
       width="54.888397"
       height="51.045933"
       x="121.46758"
       y="-271.82065"
       transform="rotate(107.40139)" />
    <rect
       style="opacity:1;fill:none;fill-opacity:1;fill-rule:nonzero;stroke:#ff0000;stroke-width:0.30000016;stroke-linecap:round;stroke-linejoin:miter;stroke-miterlimit:4;stroke-dasharray:none;stroke-opacity:1"
       id="rect3095"
       width="66.855545"
       height="8.107563"
       x="246.88493"
       y="-72.342659"
       transform="rotate(61.456681)" />
    <rect
       transform="rotate(-26.702239)"
       y="268.07974"
       x="42.61515"
       height="8.3796721"
       width="74.02739"
       id="rect3102"
       style="opacity:1;fill:none;fill-opacity:1;fill-rule:nonzero;stroke:#ff0000;stroke-width:0.30000007;stroke-linecap:round;stroke-linejoin:miter;stroke-miterlimit:4;stroke-dasharray:none;stroke-opacity:1" />
    <rect
       transform="rotate(-26.702239)"
       y="276.46503"
       x="42.595081"
       height="8.379674"
       width="74.027405"
       id="rect3104"
       style="opacity:1;fill:none;fill-opacity:1;fill-rule:nonzero;stroke:#ff0000;stroke-width:0.30000013;stroke-linecap:round;stroke-linejoin:miter;stroke-miterlimit:4;stroke-dasharray:none;stroke-opacity:1" />
    <rect
       transform="rotate(-26.702239)"
       y="259.63715"
       x="42.578911"
       height="8.3796759"
       width="74.02742"
       id="rect3106"
       style="opacity:1;fill:none;fill-opacity:1;fill-rule:nonzero;stroke:#ff0000;stroke-width:0.30000019;stroke-linecap:round;stroke-linejoin:miter;stroke-miterlimit:4;stroke-dasharray:none;stroke-opacity:1" />
    <rect
       style="opacity:1;fill:none;fill-opacity:1;fill-rule:nonzero;stroke:#ff0000;stroke-width:0.30000019;stroke-linecap:round;stroke-linejoin:miter;stroke-miterlimit:4;stroke-dasharray:none;stroke-opacity:1"
       id="rect3100"
       width="74.02742"
       height="8.3796759"
       x="42.631546"
       y="284.8226"
       transform="rotate(-26.702239)" />
  </g>
</svg>
