<?xml version="1.0" encoding="UTF-8" standalone="no"?>
<!-- Created with Inkscape (http://www.inkscape.org/) -->

<svg
   xmlns:dc="http://purl.org/dc/elements/1.1/"
   xmlns:cc="http://creativecommons.org/ns#"
   xmlns:rdf="http://www.w3.org/1999/02/22-rdf-syntax-ns#"
   xmlns:svg="http://www.w3.org/2000/svg"
   xmlns="http://www.w3.org/2000/svg"
   xmlns:xlink="http://www.w3.org/1999/xlink"
   xmlns:sodipodi="http://sodipodi.sourceforge.net/DTD/sodipodi-0.dtd"
   xmlns:inkscape="http://www.inkscape.org/namespaces/inkscape"
   version="1.1"
   id="svg2"
   width="227.2"
   height="176"
   viewBox="0 0 227.2 176"
   sodipodi:docname="PyPy.svg"
   inkscape:version="0.92+devel unknown">
  <metadata
     id="metadata8">
    <rdf:RDF>
      <cc:Work
         rdf:about="">
        <dc:format>image/svg+xml</dc:format>
        <dc:type
           rdf:resource="http://purl.org/dc/dcmitype/StillImage" />
        <dc:title></dc:title>
      </cc:Work>
    </rdf:RDF>
  </metadata>
  <defs
     id="defs6">
    <linearGradient
       inkscape:collect="always"
       xlink:href="#SVGID_1_"
       id="linearGradient6267"
       gradientUnits="userSpaceOnUse"
       x1="-38.269001"
       y1="122.47"
       x2="147.12"
       y2="122.47" />
    <linearGradient
       x1="-38.269001"
       y1="122.47"
       x2="147.12"
       gradientUnits="userSpaceOnUse"
       y2="122.47"
       id="SVGID_1_">
      <stop
         offset="0"
         stop-color="#5a9fd4"
         id="stop10" />
      <stop
         offset=".1054"
         stop-color="#5ca0d1"
         id="stop12" />
      <stop
         offset=".19"
         stop-color="#61a4c7"
         id="stop14" />
      <stop
         offset=".26750"
         stop-color="#6aabb6"
         id="stop16" />
      <stop
         offset=".34060"
         stop-color="#76b59e"
         id="stop18" />
      <stop
         offset=".41080"
         stop-color="#86c17f"
         id="stop20" />
      <stop
         offset=".47780"
         stop-color="#99d05a"
         id="stop22" />
      <stop
         offset=".5"
         stop-color="#a0d64c"
         id="stop24" />
      <stop
         offset=".52420"
         stop-color="#abd850"
         id="stop26" />
      <stop
         offset=".60480"
         stop-color="#c9de5d"
         id="stop28" />
      <stop
         offset=".68970"
         stop-color="#e1e267"
         id="stop30" />
      <stop
         offset=".77950"
         stop-color="#f2e56e"
         id="stop32" />
      <stop
         offset=".87770"
         stop-color="#fce772"
         id="stop34" />
      <stop
         offset="1"
         stop-color="#ffe873"
         id="stop36" />
    </linearGradient>
    <linearGradient
       inkscape:collect="always"
       xlink:href="#SVGID_2_"
       id="linearGradient6269"
       gradientUnits="userSpaceOnUse"
       x1="-9.2538996"
       y1="154.94"
       x2="79.774002"
       y2="178.82001" />
    <linearGradient
       x1="-9.2538996"
       y1="154.94"
       x2="79.774002"
       gradientUnits="userSpaceOnUse"
       y2="178.82001"
       id="SVGID_2_">
      <stop
         offset="0"
         stop-color="#5a9fd4"
         id="stop41" />
      <stop
         offset=".0869"
         stop-color="#6cadb1"
         id="stop43" />
      <stop
         offset=".18450"
         stop-color="#7cba92"
         id="stop45" />
      <stop
         offset=".2915"
         stop-color="#89c478"
         id="stop47" />
      <stop
         offset=".4095"
         stop-color="#93cc65"
         id="stop49" />
      <stop
         offset=".5442"
         stop-color="#9bd257"
         id="stop51" />
      <stop
         offset=".71020"
         stop-color="#9fd54e"
         id="stop53" />
      <stop
         offset="1"
         stop-color="#a0d64c"
         id="stop55" />
    </linearGradient>
    <mask
       id="SVGID_3_">
      <g
         id="g93"
         style="filter:url(#Adobe_OpacityMaskFilter)">
        <linearGradient
           id="SVGID_4_"
           y2="154.7"
           gradientUnits="userSpaceOnUse"
           y1="177.21001"
           x2="-13.011"
           x1="26.636999">
          <stop
             id="stop96"
             stop-color="#fff"
             offset="0" />
          <stop
             id="stop98"
             offset="1" />
        </linearGradient>
        <rect
           id="rect100"
           height="102.81"
           width="108.53"
           y="123.05"
           x="-32.478001"
           style="fill:url(#SVGID_4_);stroke:#000000" />
      </g>
    </mask>
    <filter
       id="Adobe_OpacityMaskFilter"
       height="57.230999"
       width="91.837997"
       color-interpolation-filters="sRGB"
       y="129.42999"
       x="-31.469999"
       filterUnits="userSpaceOnUse">
      <feColorMatrix
         id="feColorMatrix90"
         type="matrix"
         values="1 0 0 0 0  0 1 0 0 0  0 0 1 0 0  0 0 0 1 0" />
    </filter>
    <linearGradient
       id="linearGradient5727"
       y2="154.7"
       gradientUnits="userSpaceOnUse"
       y1="177.21001"
       x2="-13.011"
       x1="26.636999">
      <stop
         id="stop5723"
         stop-color="#fff"
         offset="0" />
      <stop
         id="stop5725"
         offset="1" />
    </linearGradient>
    <linearGradient
       inkscape:collect="always"
       xlink:href="#linearGradient4152"
       id="linearGradient6271"
       gradientUnits="userSpaceOnUse"
       gradientTransform="translate(-135.2,-32.596)"
       x1="152.96001"
       y1="165.02"
       x2="90.959999"
       y2="153.23" />
    <linearGradient
       id="linearGradient4152">
      <stop
         id="stop4154"
         offset="0" />
      <stop
         id="stop4162"
         stop-opacity=".88462"
         offset=".64384" />
      <stop
         id="stop4156"
         stop-opacity="0"
         offset="1" />
    </linearGradient>
  </defs>
  <sodipodi:namedview
     pagecolor="#ffffff"
     bordercolor="#666666"
     inkscape:document-rotation="0"
     borderopacity="1"
     objecttolerance="10"
     gridtolerance="10"
     guidetolerance="10"
     inkscape:pageopacity="0"
     inkscape:pageshadow="2"
     inkscape:window-width="1848"
     inkscape:window-height="1056"
     id="namedview4"
     showgrid="false"
     inkscape:zoom="4.5397727"
     inkscape:cx="113.6"
     inkscape:cy="88"
     inkscape:window-x="72"
     inkscape:window-y="0"
     inkscape:window-maximized="1"
     inkscape:current-layer="g10" />
  <g
     inkscape:groupmode="layer"
     inkscape:label="Image"
     id="g10">
    <g
       transform="matrix(1.0701768,0,0,1.0701768,99.898066,-7.6005853)"
       id="g4158">
      <g
         transform="translate(-42.203,-39.096)"
         id="g5">
        <title
           id="title7">pypy logo - by samuel reis</title>
        <linearGradient
           x1="-38.269001"
           y1="122.47"
           x2="147.12"
           gradientUnits="userSpaceOnUse"
           y2="122.47"
           id="linearGradient5763">
          <stop
             offset="0"
             stop-color="#5a9fd4"
             id="stop5735" />
          <stop
             offset=".1054"
             stop-color="#5ca0d1"
             id="stop5737" />
          <stop
             offset=".19"
             stop-color="#61a4c7"
             id="stop5739" />
          <stop
             offset=".26750"
             stop-color="#6aabb6"
             id="stop5741" />
          <stop
             offset=".34060"
             stop-color="#76b59e"
             id="stop5743" />
          <stop
             offset=".41080"
             stop-color="#86c17f"
             id="stop5745" />
          <stop
             offset=".47780"
             stop-color="#99d05a"
             id="stop5747" />
          <stop
             offset=".5"
             stop-color="#a0d64c"
             id="stop5749" />
          <stop
             offset=".52420"
             stop-color="#abd850"
             id="stop5751" />
          <stop
             offset=".60480"
             stop-color="#c9de5d"
             id="stop5753" />
          <stop
             offset=".68970"
             stop-color="#e1e267"
             id="stop5755" />
          <stop
             offset=".77950"
             stop-color="#f2e56e"
             id="stop5757" />
          <stop
             offset=".87770"
             stop-color="#fce772"
             id="stop5759" />
          <stop
             offset="1"
             stop-color="#ffe873"
             id="stop5761" />
        </linearGradient>
        <path
           inkscape:connector-curvature="0"
           style="fill:url(#linearGradient6267)"
           d="m 4.814,177.04 c -14.474,-6.3 -26.669,-15.35 -34.611,-27.31 -5.266,-7.94 -8.489,-17.345 -8.472,-27.256 -0.017,-9.912 3.206,-19.316 8.472,-27.257 5.273,-7.977 12.5,-14.651 20.971,-20.089 C 8.142,64.3 30.236,58.161 54.428,58.127 c 18.144,0.009 35.107,3.506 49.614,9.779 14.474,6.3 26.669,15.353 34.61,27.312 5.266,7.941 8.489,17.345 8.471,27.257 0.018,9.912 -3.206,19.316 -8.471,27.256 -5.273,7.977 -12.5,14.651 -20.97,20.089 -16.968,10.829 -39.063,16.966 -63.255,17.001 -18.141,-0.01 -35.105,-3.51 -49.611,-9.78 z M 15.698,93.028 C 4.952,97.653 -2.888,104.07 -6.94,110.29 c -2.729,4.18 -3.929,8.102 -3.946,12.179 0.017,4.077 1.216,8 3.946,12.178 2.722,4.145 7.066,8.386 12.893,12.116 11.626,7.503 29.034,12.708 48.476,12.672 14.581,0.008 28.019,-2.873 38.73,-7.524 10.746,-4.625 18.585,-11.042 22.638,-17.263 2.73,-4.179 3.929,-8.102 3.947,-12.178 -0.018,-4.077 -1.217,-7.999 -3.947,-12.179 -2.723,-4.144 -7.065,-8.387 -12.893,-12.116 C 91.272,90.662 73.864,85.461 54.422,85.496 h -0.073 c -14.553,0 -27.964,2.879 -38.657,7.523 z"
           id="path38" />
        <linearGradient
           x1="-9.2538996"
           y1="154.94"
           x2="79.774002"
           gradientUnits="userSpaceOnUse"
           y2="178.82001"
           id="linearGradient5782">
          <stop
             offset="0"
             stop-color="#5a9fd4"
             id="stop5766" />
          <stop
             offset=".0869"
             stop-color="#6cadb1"
             id="stop5768" />
          <stop
             offset=".18450"
             stop-color="#7cba92"
             id="stop5770" />
          <stop
             offset=".2915"
             stop-color="#89c478"
             id="stop5772" />
          <stop
             offset=".4095"
             stop-color="#93cc65"
             id="stop5774" />
          <stop
             offset=".5442"
             stop-color="#9bd257"
             id="stop5776" />
          <stop
             offset=".71020"
             stop-color="#9fd54e"
             id="stop5778" />
          <stop
             offset="1"
             stop-color="#a0d64c"
             id="stop5780" />
        </linearGradient>
        <path
           inkscape:connector-curvature="0"
           style="fill:url(#linearGradient6269)"
           d="m -0.282,142.23 7.751,6.868 c 4.436,-2.285 9.825,-3.558 15.604,-3.448 6.706,-3.936 15.21,-5.969 24.287,-5.241 11.093,0.89 20.691,5.708 26.815,12.565 0.479,0.029 0.959,0.058 1.443,0.097 18.916,1.518 33.586,11.022 32.768,21.232 -0.819,10.208 -16.817,17.254 -35.733,15.737 -0.3,-0.025 -0.595,-0.057 -0.893,-0.084 -7.159,6.103 -17.662,9.539 -29.065,8.624 -10.282,-0.825 -19.277,-5.028 -25.416,-11.1 -9.716,-2.061 -17.361,-7.922 -20.222,-15.152 l -8.853,-4.542"
           id="path57" />
        <ellipse
           ry="3.4790001"
           rx="5.4770002"
           cx="71.473"
           cy="179.55"
           id="ellipse59" />
        <ellipse
           ry="3.4779999"
           rx="5.4759998"
           cx="72.315002"
           cy="162.60001"
           id="ellipse61" />
        <path
           inkscape:connector-curvature="0"
           d="m 149.65,122.43 v -0.044 C 149.649,111.949 146.251,102.098 140.758,93.814 132.473,81.343 119.852,72.024 105.05,65.582 90.192,59.158 72.896,55.603 54.428,55.593 c -24.62,0.038 -47.17,6.271 -64.615,17.398 -8.716,5.595 -16.216,12.502 -21.72,20.826 -5.493,8.282 -8.889,18.136 -8.891,28.573 v 0.078 0.077 c 0.001,10.438 3.398,20.29 8.893,28.576 6.727,10.125 16.317,18.17 27.609,24.286 3.704,6.982 11.194,12.254 20.328,14.387 6.579,6.244 15.898,10.457 26.459,11.307 1.291,0.102 2.572,0.153 3.839,0.153 10.123,-0.002 19.396,-3.224 26.231,-8.683 1.755,0.136 3.484,0.203 5.183,0.203 8.646,-0.006 16.467,-1.712 22.428,-4.772 2.977,-1.536 5.501,-3.418 7.387,-5.674 1.377,-1.645 2.401,-3.518 2.944,-5.54 2.961,-1.494 5.813,-3.108 8.538,-4.846 8.714,-5.595 16.215,-12.5 21.719,-20.825 5.49,-8.282 8.888,-18.133 8.89,-28.569 v -0.08 -0.02 z m -5.054,0.118 c 0,9.327 -3.043,18.223 -8.051,25.778 -5.045,7.633 -11.998,14.075 -20.229,19.359 -1.812,1.156 -3.689,2.256 -5.621,3.302 -0.43,-2.181 -1.402,-4.255 -2.767,-6.137 -2.831,-3.893 -7.297,-7.121 -12.814,-9.586 -0.559,-0.248 -1.131,-0.487 -1.711,-0.719 0.252,-0.106 0.511,-0.209 0.76,-0.316 11.106,-4.794 19.31,-11.416 23.75,-18.203 2.944,-4.485 4.349,-8.972 4.355,-13.547 -0.007,-4.598 -1.411,-9.085 -4.357,-13.573 -2.971,-4.515 -7.567,-8.968 -13.646,-12.862 -12.092,-7.791 -29.822,-13.058 -49.641,-13.07 -0.06,10e-4 -0.134,0 -0.22,10e-4 h -0.05 C 39.471,82.978 25.747,85.911 14.698,90.704 3.584,95.5 -4.62,102.122 -9.06,108.909 c -2.944,4.484 -4.348,8.972 -4.355,13.547 0.007,4.596 1.412,9.084 4.357,13.571 1.799,2.734 4.204,5.441 7.164,8.021 l -0.066,0.074 9.045,8.017 1.54,-0.793 c 3.873,-1.998 8.625,-3.176 13.759,-3.175 0.214,0 0.424,0.001 0.632,0.006 l 0.716,0.015 0.618,-0.362 c 5.39,-3.165 12.106,-5.04 19.375,-5.039 1.132,0 2.276,0.046 3.431,0.138 10.485,0.836 19.494,5.407 25.132,11.731 l 0.696,0.78 1.043,0.06 c 0.475,0.028 0.935,0.057 1.386,0.092 8.848,0.703 16.704,3.255 22.169,6.675 2.734,1.707 4.86,3.621 6.25,5.547 1.395,1.935 2.054,3.826 2.055,5.675 0,0.204 -0.007,0.408 -0.023,0.618 -0.143,1.731 -0.851,3.373 -2.187,4.984 -1.993,2.406 -5.458,4.621 -9.959,6.17 -4.497,1.554 -9.998,2.459 -15.974,2.458 -1.6,0 -3.234,-0.064 -4.893,-0.197 -0.254,-0.021 -0.539,-0.051 -0.858,-0.082 l -1.063,-0.1 -0.812,0.693 c -5.876,5.017 -14.366,8.17 -23.788,8.167 -1.133,0 -2.28,-0.046 -3.437,-0.138 -9.716,-0.776 -18.166,-4.759 -23.838,-10.378 l -0.528,-0.521 -0.726,-0.154 c -9.053,-1.89 -15.97,-7.37 -18.399,-13.6 l -0.35,-0.883 -9.7,-4.976 -1.151,2.243 1.045,-2.318 c -6.802,-4.833 -12.565,-10.544 -16.942,-17.14 -5.008,-7.553 -8.051,-16.451 -8.05,-25.78 v -0.036 -0.119 c -10e-4,-9.329 3.041,-18.229 8.051,-25.782 C -22.65,88.985 -15.696,82.543 -7.466,77.26 9.021,66.733 30.659,60.689 54.427,60.657 c 17.815,0.008 34.445,3.447 48.608,9.572 14.139,6.153 25.908,14.94 33.507,26.39 5.008,7.554 8.051,16.45 8.049,25.777 0.001,0.014 0,0.054 0.001,0.12 v 0.043 z m -135.65,23.1 c -0.555,-0.331 -1.101,-0.666 -1.629,-1.008 -5.584,-3.571 -9.674,-7.601 -12.151,-11.38 -2.51,-3.866 -3.504,-7.223 -3.531,-10.801 0.026,-3.558 1.021,-6.914 3.534,-10.786 3.667,-5.66 11.143,-11.871 21.521,-16.324 l -0.999,-2.321 1.007,2.318 C 27.034,90.852 40.131,88.028 54.347,88.03 h 0.074 c 0.068,-0.001 0.125,-0.001 0.196,-0.001 18.907,-0.01 35.836,5.106 46.907,12.268 5.584,3.569 9.673,7.602 12.152,11.38 2.51,3.866 3.504,7.222 3.531,10.802 -0.027,3.556 -1.021,6.914 -3.535,10.785 -3.667,5.659 -11.143,11.87 -21.521,16.323 -2.083,0.906 -4.284,1.738 -6.579,2.497 -3.089,-0.734 -6.359,-1.257 -9.761,-1.531 -0.16,-0.013 -0.318,-0.025 -0.475,-0.035 -6.619,-6.971 -16.495,-11.716 -27.783,-12.627 -1.29,-0.104 -2.57,-0.153 -3.836,-0.153 -7.868,0.001 -15.22,1.953 -21.317,5.379 h -0.023 c -4.819,0 -9.387,0.9 -13.431,2.529 z"
           id="path73" />
        <path
           style="opacity:0.3"
           inkscape:connector-curvature="0"
           d="m -13.603,123.58 c 0,0 -7.094,-53.079 67.612,-53.079 53.5,0 58.977,19.589 67.824,48.234 0,0 -19.589,-33.912 -67.612,-33.841 -67.396,0.099 -67.824,38.686 -67.824,38.686 z"
           id="path75" />
        <path
           style="opacity:0.2"
           inkscape:connector-curvature="0"
           d="m 100.14,158.76 c 0,0 5.752,2.723 17.529,-3.739 11.42,-6.266 15.534,4.363 21.228,-7.635 0,0 4.213,6.74 -30.509,26.925 -0.001,0.001 -5.299,-12.601 -8.248,-15.551 z"
           id="path77" />
        <path
           style="opacity:0.3"
           inkscape:connector-curvature="0"
           d="m 103.51,164.23 c 0,0 -14.323,16.008 -39.178,8.426 0,0 -22.749,15.164 -42.548,-0.843 0,0 -29.857,-11.954 -32.384,-3.529 0,0 17.055,18.018 27.879,19.199 0,0 26.101,22.727 54.48,2.476 0,0 28.379,0.39 33.856,-8.877 5.477,-9.269 -2.105,-16.852 -2.105,-16.852 z"
           id="path79" />
      </g>
      <polygon
         style="opacity:0.5"
         transform="translate(-42.203,-39.096)"
         points="116.59,151.5 121.74,167.18 108.53,175.24 104.27,164.94 89.488,155.53 96.208,150.15 "
         id="polygon81" />
      <polygon
         style="opacity:0.35"
         transform="translate(-42.203,-39.096)"
         points="126.45,139.4 134.4,154.63 143.92,139.07 133.34,124.56 119.39,127.92 111.89,139.63 "
         id="polygon83" />
      <polygon
         style="opacity:0.25"
         transform="translate(-42.203,-39.096)"
         points="128.73,107.44 145.82,109.22 138.1,92.69 120.16,93.501 115.26,106.98 120.87,119.7 "
         id="polygon85" />
      <path
         style="opacity:0.68999999"
         inkscape:connector-curvature="0"
         transform="translate(-42.203,-39.096)"
         mask="url(#SVGID_3_)"
         d="m -0.943,170.52 c 0,0 22.561,2.932 37.12,8.308 l -0.672,7.84 24.864,-14.336 -21.952,-19.04 -0.672,8.735 c 0,0 -23.52,-1.12 -30.658,-9.884 -5.902,-7.247 -19.069,-18.003 -19.405,-22.708 l -19.152,18.81 c 0,0 21.741,22.695 30.527,22.268 z"
         id="path102" />
      <path
         inkscape:connector-curvature="0"
         style="fill:url(#linearGradient6271)"
         d="m -39.412,106.22 c 3.6481,9.1589 32.945,17.499 34.74,15.939 0.0732,-3.931 0.43679,-8.4709 0.43679,-8.4709 0,0 16.897,13.883 22.58,19.059 -5.1462,2.5481 -24.44,13.253 -24.44,13.253 l 0.41181,-7.5893 c 0,0 -36.218,-6.7238 -46.478,-11.388 z"
         id="path3382" />
    </g>
  </g>
</svg>
