<?xml version="1.0" encoding="UTF-8" standalone="no"?>
<svg
   xmlns:dc="http://purl.org/dc/elements/1.1/"
   xmlns:cc="http://creativecommons.org/ns#"
   xmlns:rdf="http://www.w3.org/1999/02/22-rdf-syntax-ns#"
   xmlns:svg="http://www.w3.org/2000/svg"
   xmlns="http://www.w3.org/2000/svg"
   xmlns:sodipodi="http://sodipodi.sourceforge.net/DTD/sodipodi-0.dtd"
   xmlns:inkscape="http://www.inkscape.org/namespaces/inkscape"
   width="473.85733"
   height="457.18503"
   viewBox="0 0 473.85733 457.18503"
   version="1.1"
   id="svg72"
   sodipodi:docname="Pyramid.svg"
   inkscape:version="0.92+devel unknown">
  <metadata
     id="metadata76">
    <rdf:RDF>
      <cc:Work
         rdf:about="">
        <dc:format>image/svg+xml</dc:format>
        <dc:type
           rdf:resource="http://purl.org/dc/dcmitype/StillImage" />
        <dc:title></dc:title>
      </cc:Work>
    </rdf:RDF>
  </metadata>
  <sodipodi:namedview
     pagecolor="#ffffff"
     bordercolor="#666666"
     inkscape:document-rotation="0"
     borderopacity="1"
     objecttolerance="10"
     gridtolerance="10"
     guidetolerance="10"
     inkscape:pageopacity="0"
     inkscape:pageshadow="2"
     inkscape:window-width="1920"
     inkscape:window-height="983"
     id="namedview74"
     showgrid="false"
     fit-margin-top="0"
     fit-margin-left="0"
     fit-margin-right="0"
     fit-margin-bottom="0"
     inkscape:zoom="1.1860891"
     inkscape:cx="24.708446"
     inkscape:cy="171.7606"
     inkscape:window-x="0"
     inkscape:window-y="27"
     inkscape:window-maximized="1"
     inkscape:current-layer="g63" />
  <!-- Generator: Sketch 42 (36781) - http://www.bohemiancoding.com/sketch -->
  <desc
     id="desc2">Created with Sketch.</desc>
  <defs
     id="defs4" />
  <g
     id="pyramid_logo_red_on_transparent_background"
     stroke="none"
     stroke-width="1"
     fill="none"
     fill-rule="evenodd"
     transform="translate(-112.94588,-1.2559175)">
    <g
       id="Group"
       transform="translate(111.73709)"
       fill-rule="nonzero"
       fill="#BE1E2D">
      <path
         d="m 276.90207,208.20131 c 6.69943,0.0271 12.12187,5.4847 12.08995,12.18733 -0.0224,6.70103 -5.47991,12.12188 -12.19052,12.09155 -6.69305,-0.0287 -12.1123,-5.48151 -12.09155,-12.18733 0.0319,-6.70422 5.48789,-12.11868 12.19212,-12.09155"
         id="Shape"
         inkscape:connector-curvature="0" />
      <path
         d="m 318.48422,230.87596 c 6.9277,4.71371 8.72986,14.15071 4.00658,21.0816 -4.70733,6.93089 -14.14751,8.72826 -21.07202,4.01455 -6.9277,-4.71371 -8.72667,-14.14911 -4.01775,-21.08319 4.71531,-6.9277 14.1539,-8.72667 21.08319,-4.01296"
         id="path7"
         inkscape:connector-curvature="0" />
      <path
         d="m 345.72732,283.44347 c 3.89005,9.72592 -0.84441,20.76075 -10.57831,24.64761 -9.72272,3.88526 -20.76075,-0.84282 -24.64601,-10.57352 -3.89004,-9.7323 0.84442,-20.76554 10.57512,-24.65559 9.72751,-3.88366 20.76873,0.8524 24.6492,10.5815"
         id="path9"
         inkscape:connector-curvature="0" />
      <path
         d="m 337.22253,356.95371 c -2.77108,12.80028 -15.39737,20.93155 -28.19605,18.15887 -12.79549,-2.77746 -20.92517,-15.39577 -18.15089,-28.18967 2.77427,-12.79868 15.39417,-20.92676 28.19286,-18.16047 12.79709,2.77427 20.92357,15.39578 18.15408,28.19127"
         id="path11"
         inkscape:connector-curvature="0" />
      <path
         d="m 277.01061,427.19324 c -11.81221,11.32854 -30.57765,10.92948 -41.89981,-0.89549 -11.32535,-11.80902 -10.92949,-30.57287 0.88911,-41.89503 11.82178,-11.33333 30.58403,-10.93267 41.91098,0.88432 11.31897,11.81859 10.91512,30.58404 -0.90028,41.9062"
         id="path13"
         inkscape:connector-curvature="0" />
      <path
         d="m 165.52892,457.8954 c -20.16216,3.47981 -39.32986,-10.05155 -42.80009,-30.21531 -3.47662,-20.16056 10.04356,-39.32507 30.2137,-42.80009 20.16057,-3.47662 39.32508,10.04516 42.80489,30.22009 3.46864,20.15738 -10.05155,39.32507 -30.2185,42.79531"
         id="path15"
         inkscape:connector-curvature="0" />
      <path
         d="M 28.53446,411.78629 C 5.2069484,401.29258 -5.1957746,373.88188 5.296338,350.55756 15.791643,327.23643 43.20554,316.82892 66.531455,327.32423 89.857371,337.81474 100.2569,365.22864 89.767981,388.55615 79.269484,411.87568 51.857183,422.28 28.53446,411.78629"
         id="path17"
         inkscape:connector-curvature="0" />
      <path
         d="m 174.33221,267.91521 c -3.33137,-5.81831 -1.31212,-13.23606 4.50619,-16.56422 5.81831,-3.32977 13.23925,-1.31531 16.56582,4.50779 3.32658,5.8199 1.31212,13.23286 -4.5046,16.56422 -5.8215,3.32817 -13.23605,1.31052 -16.56741,-4.50779"
         id="path19"
         inkscape:connector-curvature="0" />
      <path
         d="m 173.17014,220.56901 c 0.61775,-8.35953 7.89822,-14.63436 16.26254,-14.01981 8.34995,0.61934 14.62957,7.88864 14.01183,16.24977 -0.61775,8.35953 -7.89343,14.63277 -16.25136,14.01662 -8.35954,-0.61615 -14.63437,-7.89024 -14.02301,-16.24658"
         id="path21"
         inkscape:connector-curvature="0" />
      <path
         d="m 205.07746,170.69117 c 6.47916,-8.23342 18.4063,-9.64929 26.63813,-3.16854 8.23342,6.47756 9.65089,18.40948 3.17173,26.63812 -6.49192,8.23183 -18.40948,9.6477 -26.6445,3.16695 -8.22545,-6.48394 -9.6477,-18.40789 -3.16536,-26.63653"
         id="path23"
         inkscape:connector-curvature="0" />
      <path
         d="m 272.99765,141.30113 c 12.46986,-4.00498 25.82085,2.86525 29.81944,15.33511 3.9954,12.47465 -2.86526,25.82564 -15.33991,29.82263 -12.46188,3.99381 -25.81446,-2.87164 -29.81624,-15.3415 -4.00338,-12.46826 2.87005,-25.81925 15.33671,-29.81624"
         id="path25"
         inkscape:connector-curvature="0" />
      <path
         d="m 363.92291,158.32028 c 15.7246,4.57324 24.75934,21.02254 20.17812,36.73916 -4.56526,15.71183 -21.01296,24.75136 -36.73277,20.17812 -15.71023,-4.57324 -24.75136,-21.01775 -20.17812,-36.73756 4.57484,-15.71662 21.02413,-24.75136 36.73277,-20.17972"
         id="path27"
         inkscape:connector-curvature="0" />
      <path
         d="m 446.26516,239.51484 c 13.0924,15.72779 10.95343,39.08882 -4.76957,52.17802 -15.7246,13.0924 -39.08244,10.9646 -52.17643,-4.76479 -13.09559,-15.723 -10.95663,-39.08244 4.76957,-52.18122 15.7246,-13.08601 39.08085,-10.95183 52.17643,4.76799"
         id="path29"
         inkscape:connector-curvature="0" />
      <path
         d="m 474.82676,381.21502 c 2.57793,25.44094 -15.96244,48.16667 -41.40817,50.73982 -25.44892,2.57154 -48.16986,-15.96085 -50.73821,-41.40977 -2.57315,-25.45371 15.96723,-48.16826 41.41615,-50.74141 25.43774,-2.56995 48.1523,15.96244 50.73023,41.41136"
         id="path31"
         inkscape:connector-curvature="0" />
      <path
         d="m 277.33305,326.88685 c -3.36967,5.79277 -10.80817,7.75775 -16.60413,4.3801 -5.78639,-3.37286 -7.74977,-10.80817 -4.3785,-16.59456 3.37925,-5.79436 10.80817,-7.76253 16.59775,-4.38328 5.79915,3.37127 7.75296,10.80338 4.38488,16.59774"
         id="path33"
         inkscape:connector-curvature="0" />
      <path
         d="m 236.90019,351.55681 c -7.54385,3.65061 -16.6185,0.48366 -20.25634,-7.06179 -3.6538,-7.54863 -0.49005,-16.61849 7.06019,-20.26112 7.54544,-3.63944 16.62009,-0.48207 20.26432,7.06497 3.63943,7.54226 0.48206,16.6169 -7.06817,20.25794"
         id="path35"
         inkscape:connector-curvature="0" />
      <path
         d="m 177.75455,348.87831 c -10.36441,-1.50047 -17.55389,-11.12263 -16.05821,-21.48864 1.50206,-10.3692 11.11305,-17.56507 21.48065,-16.06141 10.3724,1.49888 17.56348,11.11944 16.06461,21.47906 -1.49728,10.37399 -11.11784,17.56827 -21.48705,16.07099"
         id="path37"
         inkscape:connector-curvature="0" />
      <path
         d="m 118.34394,304.74535 c -9.69399,-8.7985 -10.42826,-23.79361 -1.62817,-33.49239 8.8001,-9.69399 23.79841,-10.42667 33.49719,-1.62498 9.69718,8.7985 10.42347,23.79362 1.62178,33.49559 -8.80009,9.69559 -23.79361,10.42188 -33.4908,1.62178"
         id="path39"
         inkscape:connector-curvature="0" />
      <path
         d="m 87.61784,217.48826 c -3.898028,-15.90019 5.827888,-31.94563 21.72808,-35.84526 15.8954,-3.89483 31.95042,5.8263 35.84525,21.72329 3.89963,15.89859 -5.82788,31.94563 -21.72647,35.84686 -15.897,3.89962 -31.948832,-5.82949 -35.84686,-21.72489"
         id="path41"
         inkscape:connector-curvature="0" />
      <path
         d="m 116.77164,105.58516 c 7.06817,-19.201216 28.37165,-29.029291 47.57127,-21.961122 19.19803,7.07615 29.03249,28.370042 21.95953,47.571262 -7.07136,19.20282 -28.36845,29.03409 -47.57127,21.96113 -19.19962,-7.07296 -29.03249,-28.37005 -21.95953,-47.57127"
         id="path43"
         inkscape:connector-curvature="0" />
      <path
         d="M 225.2061,10.000469 C 245.95249,-4.9547418 274.89878,-0.25539906 289.84441,20.48939 304.79962,41.24216 300.10667,70.190047 279.3507,85.140469 258.60751,100.09568 229.66441,95.397934 214.70122,74.643568 199.76038,53.897183 204.45174,24.954084 225.2061,10.000469"
         id="path45"
         inkscape:connector-curvature="0" />
    </g>
    <g
       id="g63"
       transform="translate(0,472.48826)"
       fill-rule="nonzero"
       fill="#BE1E2D" />
  </g>
</svg>
