<?xml version="1.0" encoding="UTF-8" standalone="no"?>
<!-- Created with Inkscape (http://www.inkscape.org/) -->

<svg
   xmlns:dc="http://purl.org/dc/elements/1.1/"
   xmlns:cc="http://creativecommons.org/ns#"
   xmlns:rdf="http://www.w3.org/1999/02/22-rdf-syntax-ns#"
   xmlns:svg="http://www.w3.org/2000/svg"
   xmlns="http://www.w3.org/2000/svg"
   xmlns:sodipodi="http://sodipodi.sourceforge.net/DTD/sodipodi-0.dtd"
   xmlns:inkscape="http://www.inkscape.org/namespaces/inkscape"
   version="1.1"
   id="svg2"
   width="48"
   height="45.759998"
   viewBox="0 0 48 45.759998"
   sodipodi:docname="Pytest.svg"
   inkscape:version="0.92+devel unknown">
  <metadata
     id="metadata8">
    <rdf:RDF>
      <cc:Work
         rdf:about="">
        <dc:format>image/svg+xml</dc:format>
        <dc:type
           rdf:resource="http://purl.org/dc/dcmitype/StillImage" />
        <dc:title></dc:title>
      </cc:Work>
    </rdf:RDF>
  </metadata>
  <defs
     id="defs6" />
  <sodipodi:namedview
     pagecolor="#ffffff"
     bordercolor="#666666"
     inkscape:document-rotation="0"
     borderopacity="1"
     objecttolerance="10"
     gridtolerance="10"
     guidetolerance="10"
     inkscape:pageopacity="0"
     inkscape:pageshadow="2"
     inkscape:window-width="1848"
     inkscape:window-height="1056"
     id="namedview4"
     showgrid="false"
     inkscape:zoom="6.1732773"
     inkscape:cx="58.783508"
     inkscape:cy="11.641769"
     inkscape:window-x="72"
     inkscape:window-y="0"
     inkscape:window-maximized="1"
     inkscape:current-layer="g10" />
  <g
     inkscape:groupmode="layer"
     inkscape:label="Image"
     id="g10">
    <g
       transform="matrix(0.04002017,0,0,0.04002017,-5.3602077,-6.0185373)"
       id="pytest_logo">
      <g
         id="graphics">
        <path
           inkscape:connector-curvature="0"
           d="m 521.576,213.75 h 431.04 c 11.667,0 21.125,9.458 21.125,21.125 v 0 c 0,11.667 -9.458,21.125 -21.125,21.125 h -431.04 c -11.667,0 -21.125,-9.458 -21.125,-21.125 v 0 c 0,-11.667 9.458,-21.125 21.125,-21.125 z"
           fill="#696969"
           id="horizontal_bar" />
        <g
           id="top_bars">
          <path
             inkscape:connector-curvature="0"
             d="M 525.333,171 H 612 v 20 h -86.667 z"
             fill="#009FE3"
             id="path3" />
          <path
             inkscape:connector-curvature="0"
             d="m 638.667,171 h 86.666 v 20 h -86.666 z"
             fill="#C7D302"
             id="path5" />
          <path
             inkscape:connector-curvature="0"
             d="m 750.5,171 h 86.667 v 20 H 750.5 Z"
             fill="#F07E16"
             id="path7" />
          <path
             inkscape:connector-curvature="0"
             d="m 861.861,171 h 86.667 v 20 h -86.667 z"
             fill="#DF2815"
             id="path9" />
        </g>
        <g
           id="bottom_bars">
          <path
             inkscape:connector-curvature="0"
             d="m 861.861,278 h 86.667 v 146.5 h -86.667 z"
             fill="#DF2815"
             id="path12" />
          <path
             inkscape:connector-curvature="0"
             d="m 750.5,278 h 86.828 V 516 H 750.5 Z"
             fill="#F07E16"
             id="path14" />
          <path
             inkscape:connector-curvature="0"
             d="m 638.667,278 h 86.661 v 356.5 h -86.661 z"
             fill="#C7D302"
             id="path16" />
          <path
             inkscape:connector-curvature="0"
             d="M 525.333,278 H 612 v 434.5 h -86.667 z"
             fill="#009FE3"
             id="path18" />
        </g>
      </g>
      <g
         id="pytest">
        <path
           inkscape:connector-curvature="0"
           d="m 252.959,1173.846 q -12.82,0 -23.249,-2.825 -10.43,-2.825 -18.796,-7.496 -8.365,-4.672 -14.775,-10.973 -6.41,-6.302 -11.407,-13.255 h -2.608 q 0.652,7.388 1.304,14.124 0.434,5.649 0.869,11.625 0.435,5.975 0.435,9.452 v 101.906 H 145.186 V 930.921 h 32.158 l 5.649,32.158 h 1.739 q 4.997,-7.605 11.298,-14.232 6.302,-6.627 14.667,-11.516 8.366,-4.889 18.795,-7.822 10.43,-2.934 23.467,-2.934 20.425,0 37.156,7.822 16.731,7.823 28.573,23.359 11.842,15.536 18.36,38.568 6.519,23.032 6.519,53.452 0,30.637 -6.519,53.778 -6.518,23.141 -18.36,38.785 -11.842,15.645 -28.573,23.576 -16.731,7.931 -37.156,7.931 z m -7.605,-214.461 q -16.514,0 -27.921,4.998 -11.408,4.997 -18.469,15.21 -7.062,10.212 -10.43,25.422 -3.368,15.21 -3.802,35.852 v 8.909 q 0,21.946 2.933,39.003 2.933,17.056 9.995,28.681 7.062,11.625 18.795,17.6 11.734,5.976 29.334,5.976 29.333,0 43.131,-23.684 13.797,-23.685 13.797,-68.011 0,-45.195 -13.797,-67.575 -13.798,-22.381 -43.566,-22.381 z"
           fill="#696969"
           id="path22" />
        <path
           inkscape:connector-curvature="0"
           d="m 370.293,930.921 h 41.067 l 46.716,133.196 q 3.042,8.691 6.193,18.252 3.151,9.56 5.867,19.121 2.716,9.56 4.671,18.469 1.956,8.909 2.825,16.514 h 1.304 q 1.086,-5.432 3.476,-14.776 2.39,-9.343 5.324,-19.881 2.933,-10.539 6.084,-20.751 3.15,-10.212 5.54,-17.383 L 542.6,930.921 h 40.85 l -94.302,269.651 q -6.084,17.6 -13.146,31.615 -7.061,14.015 -16.405,23.792 -9.343,9.778 -21.946,15.102 -12.602,5.323 -29.985,5.323 -11.299,0 -19.556,-1.195 -8.256,-1.195 -14.123,-2.499 v -31.506 q 4.563,1.087 11.516,1.847 6.953,0.761 14.558,0.761 10.43,0 18.035,-2.499 7.605,-2.499 13.254,-7.279 5.65,-4.781 9.669,-11.734 4.02,-6.953 7.279,-15.862 l 12.386,-34.765 z"
           fill="#696969"
           id="path24" />
        <path
           inkscape:connector-curvature="0"
           d="m 695.568,1141.47 q 3.911,0 8.8,-0.434 4.889,-0.435 9.452,-1.087 4.563,-0.652 8.366,-1.521 3.802,-0.869 5.758,-1.521 v 29.986 q -2.825,1.303 -7.171,2.607 -4.345,1.304 -9.56,2.281 -5.215,0.978 -10.864,1.521 -5.65,0.544 -11.082,0.544 -13.472,0 -24.988,-3.477 -11.516,-3.476 -19.881,-11.951 -8.366,-8.474 -13.146,-22.923 -4.78,-14.45 -4.78,-36.395 V 960.689 h -33.68 v -17.6 l 33.68,-16.948 16.948,-49.976 h 22.815 v 54.756 h 59.971 v 29.768 H 666.235 V 1099.1 q 0,21.076 6.844,31.723 6.845,10.647 22.489,10.647 z"
           fill="#009FE3"
           id="path26" />
        <path
           inkscape:connector-curvature="0"
           d="m 868.527,1173.846 q -23.901,0 -43.674,-8.04 -19.773,-8.039 -34.005,-23.467 -14.232,-15.427 -22.055,-38.242 -7.822,-22.815 -7.822,-52.148 0,-29.551 7.171,-52.801 7.17,-23.249 20.207,-39.437 13.037,-16.188 31.18,-24.662 18.144,-8.474 40.09,-8.474 21.511,0 38.676,7.714 17.166,7.713 29.117,21.728 11.95,14.015 18.36,33.68 6.41,19.664 6.41,43.565 v 24.553 H 801.821 q 1.086,41.936 17.708,61.709 16.623,19.773 49.433,19.773 11.081,0 20.533,-1.086 9.452,-1.086 18.252,-3.151 8.8,-2.064 17.057,-5.215 8.257,-3.15 16.731,-7.061 v 35.2 q -8.691,4.128 -17.057,7.17 -8.365,3.042 -17.165,4.998 -8.8,1.955 -18.252,2.825 -9.452,0.869 -20.534,0.869 z m -9.778,-214.461 q -24.77,0 -39.22,16.948 -14.449,16.949 -16.839,49.324 h 106.904 q 0,-14.775 -2.933,-27.052 -2.934,-12.276 -9.126,-20.968 -6.193,-8.691 -15.753,-13.471 -9.561,-4.781 -23.033,-4.781 z"
           fill="#009FE3"
           id="path28" />
        <path
           inkscape:connector-curvature="0"
           d="m 1155.126,1104.097 q 0,17.383 -6.301,30.42 -6.301,13.037 -18.143,21.837 -11.842,8.8 -28.573,13.146 -16.731,4.346 -37.591,4.346 -23.684,0 -40.632,-3.803 -16.948,-3.802 -29.768,-11.19 v -36.069 q 6.736,3.476 14.993,6.844 8.257,3.368 17.383,5.976 9.126,2.607 18.795,4.237 9.669,1.629 19.229,1.629 14.124,0 24.01,-2.39 9.887,-2.39 16.08,-6.844 6.192,-4.455 9.017,-10.865 2.825,-6.41 2.825,-14.232 0,-6.736 -2.173,-12.168 -2.173,-5.432 -7.931,-10.755 -5.758,-5.324 -15.753,-10.756 -9.995,-5.432 -25.64,-12.168 -15.645,-6.736 -28.138,-13.254 -12.494,-6.519 -21.186,-14.559 -8.691,-8.039 -13.363,-18.577 -4.671,-10.539 -4.671,-25.097 0,-15.21 5.975,-27.052 5.975,-11.842 16.84,-19.881 10.864,-8.04 26.074,-12.168 15.21,-4.129 33.896,-4.129 21.077,0 38.568,4.563 17.492,4.563 33.136,11.951 l -13.689,31.941 q -14.123,-6.301 -29.007,-10.973 -14.884,-4.672 -30.311,-4.672 -22.164,0 -32.811,7.279 -10.646,7.279 -10.646,20.751 0,7.605 2.498,13.254 2.499,5.65 8.583,10.647 6.084,4.998 16.296,10.104 10.213,5.106 25.423,11.408 15.644,6.518 27.921,13.037 12.277,6.518 20.968,14.666 8.691,8.149 13.254,18.578 4.563,10.43 4.563,24.988 z"
           fill="#009FE3"
           id="path30" />
        <path
           inkscape:connector-curvature="0"
           d="m 1285.28,1141.47 q 3.911,0 8.8,-0.434 4.889,-0.435 9.452,-1.087 4.563,-0.652 8.366,-1.521 3.802,-0.869 5.758,-1.521 v 29.986 q -2.825,1.303 -7.171,2.607 -4.345,1.304 -9.56,2.281 -5.215,0.978 -10.865,1.521 -5.649,0.544 -11.081,0.544 -13.472,0 -24.988,-3.477 -11.516,-3.476 -19.882,-11.951 -8.365,-8.474 -13.145,-22.923 -4.781,-14.45 -4.781,-36.395 V 960.689 h -33.679 v -17.6 l 33.679,-16.948 16.949,-49.976 h 22.815 v 54.756 h 59.97 v 29.768 h -59.97 V 1099.1 q 0,21.076 6.844,31.723 6.845,10.647 22.489,10.647 z"
           fill="#009FE3"
           id="path32" />
      </g>
    </g>
  </g>
</svg>
