<?xml version="1.0" encoding="UTF-8" standalone="no"?>
<!-- Created with Inkscape (http://www.inkscape.org/) -->

<svg
   xmlns:dc="http://purl.org/dc/elements/1.1/"
   xmlns:cc="http://creativecommons.org/ns#"
   xmlns:rdf="http://www.w3.org/1999/02/22-rdf-syntax-ns#"
   xmlns:svg="http://www.w3.org/2000/svg"
   xmlns="http://www.w3.org/2000/svg"
   xmlns:xlink="http://www.w3.org/1999/xlink"
   xmlns:sodipodi="http://sodipodi.sourceforge.net/DTD/sodipodi-0.dtd"
   xmlns:inkscape="http://www.inkscape.org/namespaces/inkscape"
   version="1.1"
   id="svg2"
   width="1200"
   height="1200"
   viewBox="0 0 1200 1200"
   sodipodi:docname="Pyvo.svg"
   inkscape:version="0.92+devel unknown">
  <metadata
     id="metadata8">
    <rdf:RDF>
      <cc:Work
         rdf:about="">
        <dc:format>image/svg+xml</dc:format>
        <dc:type
           rdf:resource="http://purl.org/dc/dcmitype/StillImage" />
        <dc:title></dc:title>
      </cc:Work>
    </rdf:RDF>
  </metadata>
  <defs
     id="defs6">
    <linearGradient
       id="linearGradient2795">
      <stop
         id="stop2797"
         offset="0"
         style="stop-color:#b8b8b8;stop-opacity:0.49803922" />
      <stop
         id="stop2799"
         offset="1"
         style="stop-color:#7f7f7f;stop-opacity:0" />
    </linearGradient>
    <linearGradient
       id="linearGradient2787">
      <stop
         id="stop2789"
         offset="0"
         style="stop-color:#7f7f7f;stop-opacity:0.5" />
      <stop
         id="stop2791"
         offset="1"
         style="stop-color:#7f7f7f;stop-opacity:0" />
    </linearGradient>
    <linearGradient
       id="linearGradient3676">
      <stop
         id="stop3678"
         offset="0"
         style="stop-color:#b2b2b2;stop-opacity:0.5" />
      <stop
         id="stop3680"
         offset="1"
         style="stop-color:#b3b3b3;stop-opacity:0" />
    </linearGradient>
    <linearGradient
       id="linearGradient3236">
      <stop
         id="stop3244"
         offset="0"
         style="stop-color:#f4f4f4;stop-opacity:1" />
      <stop
         id="stop3240"
         offset="1"
         style="stop-color:#ffffff;stop-opacity:1" />
    </linearGradient>
    <linearGradient
       id="linearGradient4671">
      <stop
         id="stop4673"
         offset="0"
         style="stop-color:#ffd43b;stop-opacity:1" />
      <stop
         id="stop4675"
         offset="1"
         style="stop-color:#ffe873;stop-opacity:1" />
    </linearGradient>
    <linearGradient
       id="linearGradient4689">
      <stop
         id="stop4691"
         offset="0"
         style="stop-color:#5a9fd4;stop-opacity:1" />
      <stop
         id="stop4693"
         offset="1"
         style="stop-color:#306998;stop-opacity:1" />
    </linearGradient>
    <linearGradient
       gradientTransform="translate(100.2702,99.61116)"
       gradientUnits="userSpaceOnUse"
       xlink:href="#linearGradient4671"
       id="linearGradient2987"
       y2="144.75717"
       x2="-65.308502"
       y1="144.75717"
       x1="224.23996" />
    <linearGradient
       gradientTransform="translate(100.2702,99.61116)"
       gradientUnits="userSpaceOnUse"
       xlink:href="#linearGradient4689"
       id="linearGradient2990"
       y2="76.313133"
       x2="26.670298"
       y1="77.475983"
       x1="172.94208" />
    <linearGradient
       gradientTransform="matrix(0.562541,0,0,0.567972,-11.5974,-7.60954)"
       gradientUnits="userSpaceOnUse"
       xlink:href="#linearGradient4671"
       id="linearGradient2255"
       y2="144.75717"
       x2="-65.308502"
       y1="144.75717"
       x1="224.23996" />
    <linearGradient
       gradientTransform="matrix(0.562541,0,0,0.567972,-11.5974,-7.60954)"
       gradientUnits="userSpaceOnUse"
       xlink:href="#linearGradient4689"
       id="linearGradient2258"
       y2="76.313133"
       x2="26.670298"
       y1="76.176224"
       x1="172.94208" />
    <radialGradient
       gradientTransform="matrix(1,0,0,0.177966,0,108.7434)"
       gradientUnits="userSpaceOnUse"
       xlink:href="#linearGradient2795"
       id="radialGradient2801"
       fy="132.28575"
       fx="61.518883"
       r="29.036913"
       cy="132.28575"
       cx="61.518883" />
    <linearGradient
       gradientTransform="matrix(0.562541,0,0,0.567972,109.8227,98.407593)"
       gradientUnits="userSpaceOnUse"
       xlink:href="#linearGradient4671"
       id="linearGradient1475"
       y2="137.27299"
       x2="112.03144"
       y1="192.35176"
       x1="150.96111" />
    <linearGradient
       gradientTransform="matrix(0.562541,0,0,0.567972,109.8227,98.407593)"
       gradientUnits="userSpaceOnUse"
       xlink:href="#linearGradient4689"
       id="linearGradient1478"
       y2="114.39767"
       x2="135.66525"
       y1="20.603781"
       x1="26.648937" />
    <radialGradient
       gradientTransform="matrix(1.7490565e-8,-0.23994696,1.054668,3.7915457e-7,41.113021,252.57197)"
       gradientUnits="userSpaceOnUse"
       xlink:href="#linearGradient2795"
       id="radialGradient1480"
       fy="132.28575"
       fx="61.518883"
       r="29.036913"
       cy="132.28575"
       cx="61.518883" />
  </defs>
  <sodipodi:namedview
     pagecolor="#ffffff"
     bordercolor="#666666"
     inkscape:document-rotation="0"
     borderopacity="1"
     objecttolerance="10"
     gridtolerance="10"
     guidetolerance="10"
     inkscape:pageopacity="0"
     inkscape:pageshadow="2"
     inkscape:window-width="1848"
     inkscape:window-height="1056"
     id="namedview4"
     showgrid="false"
     inkscape:zoom="0.66583333"
     inkscape:cx="600"
     inkscape:cy="600"
     inkscape:window-x="72"
     inkscape:window-y="0"
     inkscape:window-maximized="1"
     inkscape:current-layer="g10" />
  <g
     inkscape:groupmode="layer"
     inkscape:label="Image"
     id="g10">
    <g
       id="g4399"
       transform="translate(950.10022,-9.4951759)">
      <g
         transform="matrix(4.3322502,1.4206303,-1.4206303,4.3322502,-901.97518,-240.60359)"
         id="g4371">
        <path
           id="path1948"
           style="fill:url(#linearGradient1478);fill-opacity:1"
           d="m 179.73261,110.11088 c -4.58366,0.0213 -8.96094,0.41222 -12.8125,1.09375 -11.34622,2.00451 -13.40625,6.2001 -13.40625,13.9375 v 10.21875 h 26.8125 v 3.40625 h -26.8125 -10.0625 c -7.79246,0 -14.61576,4.68372 -16.75,13.59375 -2.46182,10.21297 -2.57102,16.58603 0,27.25 1.90592,7.93786 6.45754,13.59375 14.25,13.59375 h 9.21875 v -12.25 c 0,-8.8499 7.65714,-16.65625 16.75,-16.65625 h 26.78125 c 7.45495,0 13.40625,-6.13816 13.40625,-13.625 v -25.53125 c 0,-7.26634 -6.12998,-12.72477 -13.40625,-13.9375 -4.60599,-0.76672 -9.3851,-1.11505 -13.96875,-1.09375 z m -14.5,8.21875 c 2.76954,0 5.03125,2.29865 5.03125,5.125 -1e-5,2.81634 -2.26171,5.09375 -5.03125,5.09375 -2.77948,0 -5.03125,-2.27741 -5.03125,-5.09375 -1e-5,-2.82635 2.25177,-5.125 5.03125,-5.125 z"
           inkscape:connector-curvature="0" />
        <path
           id="path1950"
           style="fill:url(#linearGradient1475);fill-opacity:1"
           d="m 210.45136,138.76713 v 11.90625 c 0,9.23076 -7.8259,17 -16.75,17 h -26.78125 c -7.33584,0 -13.40625,6.27849 -13.40625,13.625 v 25.53125 c 0,7.26634 6.31858,11.54032 13.40625,13.625 8.48733,2.49561 16.62623,2.94663 26.78125,0 6.75015,-1.95439 13.40625,-5.88761 13.40625,-13.625 v -10.21875 h -26.78125 v -3.40625 h 26.78125 13.40625 c 7.79246,0 10.69625,-5.43541 13.40624,-13.59375 2.79933,-8.39888 2.68022,-16.47577 0,-27.25 -1.92578,-7.75744 -5.60387,-13.59375 -13.40624,-13.59375 z m -15.0625,64.65625 c 2.77947,1e-5 5.03125,2.27742 5.03125,5.09375 -1e-5,2.82635 -2.25178,5.125 -5.03125,5.125 -2.76955,0 -5.03125,-2.29865 -5.03125,-5.125 0,-2.81633 2.26169,-5.09375 5.03125,-5.09375 z"
           inkscape:connector-curvature="0" />
      </g>
      <path
         sodipodi:nodetypes="ccssscsccccccscscscccsssssccsssssccsscccccssccssccccssccscccscccsccsscccsccccccsccscscccscsscscccscccccscscscsccccccccscssccsscccccccccsscsssscsccccccscsccsscsscccsccccssscccscssccccscsscccccccssscsccccsccssccccccsscsccssscsscccccccccccscccccssccsccscsccccsccsssssscscccccccccccscccccccscsssssccscssssccccccscccsscssccccsccscccccsccsccscccsccsscccccccscsccccccccsccscccsccsssccccccsscscsccssccscsscsccccccscsscc"
         style="fill:#000000;fill-opacity:1;stroke-width:1.33333337"
         d="m -370.25073,1086.8321 c -35.41752,-2.702 -66.34939,-7.989 -87.33333,-14.9274 -4.4,-1.4548 -12.5,-3.9762 -18,-5.6031 -5.5,-1.6269 -11.8,-3.7208 -14,-4.6532 -2.2,-0.9324 -6.4,-2.4114 -9.33334,-3.2867 -2.93333,-0.8753 -7.13333,-2.4017 -9.33333,-3.392 -10.57807,-4.7615 -13.93201,-5.9981 -16.26817,-5.9981 -1.39251,0 -3.10183,-0.5257 -3.7985,-1.1681 -0.69666,-0.6425 -5.16666,-2.8257 -9.93333,-4.8516 -9.96221,-4.2339 -25.36821,-11.8489 -36,-17.7942 -4.03333,-2.2555 -10.63333,-5.8099 -14.66667,-7.8986 -13.41065,-6.9451 -19.76224,-11.5704 -27.24712,-19.84144 -6.7825,-7.49493 -7.68756,-9.25909 -10.59597,-20.65385 -1.74903,-6.85241 -4.20804,-19.65895 -5.46448,-28.45895 -1.25644,-8.8 -3.10503,-20.2 -4.10795,-25.33333 -1.00293,-5.13333 -2.49156,-14.41639 -3.30805,-20.62901 -0.81649,-6.21263 -1.80548,-11.81499 -2.19773,-12.44968 -1.79235,-2.90007 -5.66454,-37.79395 -5.72474,-51.58798 -0.0368,-8.43333 -0.96149,-19.53333 -2.05485,-24.66666 -1.09335,-5.13334 -2.31225,-13.53334 -2.70868,-18.66667 -0.77251,-10.00352 -3.90184,-34.91976 -6.02851,-48 -0.71537,-4.4 -1.86138,-21.2 -2.5467,-37.33333 -0.68531,-16.13334 -2.15223,-43.43334 -3.25983,-60.66667 -1.45219,-22.59492 -1.87917,-47.50868 -1.53105,-89.33333 0.52909,-63.56902 1.09784,-79.46444 4.32566,-120.89623 1.18994,-15.27375 2.60034,-37.97044 3.13422,-50.43711 0.53388,-12.46666 1.66424,-28.96666 2.51189,-36.66666 2.46144,-22.35919 4.40929,-42.74898 4.84023,-50.66667 0.21953,-4.03333 1.03864,-11.53333 1.82026,-16.66667 1.89394,-12.43864 2.58938,-17.87004 4.01195,-31.33333 1.8534,-17.5408 8.10156,-47.86801 11.53739,-56 3.95765,-9.36705 9.47944,-14.80696 21.74653,-21.42407 9.89053,-5.33514 14.11653,-6.35981 38.18087,-9.25756 5.86666,-0.70644 15.16666,-1.91453 20.66666,-2.68462 5.5,-0.77011 13.3,-1.67884 17.33334,-2.0194 12.37448,-1.04487 18.68632,-1.9732 36.12134,-5.31271 15.57775,-2.98376 20.19156,-3.23245 64,-3.44971 25.96659,-0.1288 49.31494,-0.73168 51.8852,-1.33977 2.57028,-0.60809 11.57028,-1.42201 20,-1.80871 8.42974,-0.38669 18.62679,-1.02754 22.66012,-1.42412 6.59296,-0.64824 43.9582,1.1742 54,2.63379 2.2,0.31976 7.9,0.95056 12.66667,1.40175 41.20208,3.90005 50.23235,5.25198 83.33333,12.47596 31.47667,6.86946 43.35523,9.73133 66.66667,16.06182 29.840789,8.10362 28.381709,7.47647 34.792439,14.9547 4.02552,4.69582 4.13931,5.20613 4.90575,22 0.43154,9.45596 1.98433,25.89265 3.45062,36.52598 1.4663,10.63334 3.6451,28.63334 4.84178,40 1.19668,11.36667 3.01284,25.76667 4.03592,32 1.02309,6.23334 2.24469,15.08442 2.71468,19.66906 0.93492,9.11982 2.00542,10.78666 4.7744,7.43401 0.99976,-1.21051 5.0302,-3.62395 8.95652,-5.36321 3.92633,-1.73927 10.61506,-5.52302 14.86385,-8.40831 4.24879,-2.88529 13.63635,-7.62191 20.86123,-10.52581 11.4168598,-4.58879 13.3387998,-5.01848 14.6844998,-3.28307 1.3652,1.76055 2.23267,1.76759 7.333336,0.0595 15.1653402,-5.07842 28.5236802,-5.82519 40.4516402,-2.26139 2.93333,0.87641 10.01993,2.47072 15.74803,3.54289 8.5464,1.59968 11.7755,2.96967 18,7.63672 4.1719,3.12803 9.5777,6.48542 12.0128,7.46088 4.5395,1.81842 14.905805,11.40992 14.905805,13.7917 0,0.73074 1.416,3.18525 3.1466,5.45448 1.7306,2.26921 4.79609,7.28096 6.81229,11.13718 2.0162,3.85624 4.2003,7.34166 4.8535,7.74536 0.6532,0.40371 1.1876,1.82515 1.1876,3.15874 0,1.3336 0.8087,3.09581 1.797,3.91605 0.9883,0.82023 1.8471,3.14369 1.9085,5.16325 0.061,2.01956 1.6125,8.47194 3.4469,14.3386 1.8344,5.86667 3.9616,14.15139 4.7271,18.4105 0.7655,4.25909 1.7981,8.40121 2.2947,9.20469 0.4966,0.80349 1.4154,6.31877 2.0417,12.25619 2.2631,21.45274 6.5319,54.82912 10.5041,82.12862 2.5873,17.78136 2.7518,22.62099 4.5046,132.57438 0.308,19.32021 -0.7102,29.69933 -3.8024,38.75896 -3.4601,10.13778 -9.9507,33.3524 -10.8108,38.66666 -1.1047,6.82522 -7.2959,23.28592 -14.6379,38.91832 -5.2391,11.15502 -11.5845,20.49896 -29.828495,43.92415 -3.5021,4.49669 -8.0336,10.79669 -10.0699,14 -2.0364,3.20331 -6.4188,7.9242 -9.7387,10.49087 -3.3199,2.56666 -9.7038,8.02718 -14.1863,12.13449 -4.4825,4.10731 -11.4501,10.35797 -15.4834,13.89036 -4.03333,3.53239 -10.93333,9.862 -15.33333,14.06581 -4.4,4.2038 -10.7,9.81467 -14,12.46859 -3.3000002,2.65392 -8.2096402,6.61377 -10.9103202,8.79969 -2.700676,2.18591 -5.590716,3.97439 -6.422306,3.97439 -0.83157,0 -3.42193,1.41513 -5.7563298,3.14473 -3.76535,2.78983 -15.47542,8.65759 -22.91104,11.48044 -1.46667,0.5568 -5.36667,2.22375 -8.66667,3.70432 -3.3,1.48059 -9.6,3.69132 -14,4.91275 -4.4,1.22143 -9.60072,2.72088 -11.55716,3.33212 -2.22224,0.69427 -4.09028,0.5782 -4.97777,-0.30929 -2.1178,-2.1178 -2.55472,-1.07956 -4.12034,9.79092 -1.67252,11.61277 -6.12089,33.45714 -8.94874,43.94401 -1.68183,6.2369 -3.30454,8.57104 -10.8534,15.61154 -4.881759,4.553 -15.598939,12.2832 -23.815949,17.1783 -8.21701,4.8952 -16.10972,9.99 -17.53935,11.3219 -2.34262,2.1825 -5.59848,3.8181 -19.8992,9.9966 -2.40821,1.0404 -5.48962,1.8917 -6.84758,1.8917 -1.35796,0 -4.1876,0.8963 -6.2881,1.9918 -2.10049,1.0955 -5.13366,1.9955 -6.74038,2 -1.60672,0 -3.28068,0.5897 -3.71991,1.3003 -0.43921,0.7107 -5.42463,2.7914 -11.07868,4.6237 -16.88975,5.4737 -20.82847,7.0626 -21.34455,8.6109 -0.27012,0.8103 -1.6057,1.4733 -2.96798,1.4733 -1.36227,0 -2.84768,0.6 -3.30091,1.3333 -0.45323,0.7334 -2.43885,1.3334 -4.41252,1.3334 -4.54992,0 -19.09387,3.0976 -26.92081,5.7336 -3.3,1.1114 -10.5,2.7294 -16,3.5955 -5.5,0.8661 -11.27411,2.074 -12.83135,2.6841 -1.55723,0.6101 -9.65723,1.2561 -18,1.4356 -8.34276,0.1795 -18.73212,1.1465 -23.08748,2.1488 -10.56563,2.4315 -25.36131,2.7136 -48.74784,0.9295 z m 43.1794,-5.5208 c 2.09363,-1.3081 3.18283,-1.4266 26.92068,-2.929 20.52012,-1.2988 32.19327,-3.1479 46.89156,-7.428 3.8454,-1.1197 10.4454,-2.9783 14.66667,-4.1301 4.22126,-1.1519 9.05325,-2.6399 10.73776,-3.3068 1.6845,-0.6669 4.4145,-1.2125 6.06666,-1.2125 1.65216,0 3.58266,-0.5787 4.28999,-1.286 0.70733,-0.7074 7.85115,-3.4366 15.87515,-6.0651 8.02398,-2.6285 15.21526,-5.2631 15.9806,-5.8548 0.76534,-0.5917 4.3127,-1.789 7.88304,-2.6607 9.77497,-2.3864 30.47206,-10.7809 33.59442,-13.6256 1.51394,-1.3793 3.07498,-2.5078 3.46898,-2.5078 0.39401,0 4.85533,-2.7292 9.91406,-6.065 5.05874,-3.3358 11.89026,-7.2651 15.18118,-8.7318 6.46281,-2.8805 21.740519,-18.20884 23.791079,-23.8699 3.58377,-9.89392 9.4869,-41.37304 11.62658,-62 0.45643,-4.4 1.06794,-9.5 1.35892,-11.33334 3.91996,-24.69772 8.74027,-88.92957 9.15554,-122 0.11053,-8.8 0.91785,-21.1329 1.7941,-27.40646 1.62958,-11.66696 2.46402,-49.29266 2.06828,-93.2602 -0.12213,-13.56667 -0.26386,-49.86667 -0.31501,-80.66667 -0.0512,-30.8 -0.69476,-62.9 -1.43023,-71.33333 -0.73546,-8.43334 -1.6591,-40.23334 -2.05252,-70.66667 -0.39341,-30.43333 -1.28558,-57.73333 -1.98261,-60.66667 -0.69703,-2.93333 -1.28764,-10.43333 -1.31245,-16.66666 -0.0505,-12.69124 -3.343,-43.48316 -8.61456,-80.56543 -1.13883,-8.01099 -2.0711,-17.31099 -2.0717,-20.66667 -6e-4,-3.35568 -0.87648,-10.30124 -1.94641,-15.43457 -2.17567,-10.43852 -4.66032,-31.66524 -5.66679,-48.41213 l -0.66582,-11.0788 -11.059859,-5.25454 c -6.08292,-2.89 -11.56989,-5.258 -12.19328,-5.26222 -0.62337,-0.004 -6.83341,-1.8819 -13.80008,-4.17256 -6.96666,-2.29068 -15.36666,-4.65439 -18.66666,-5.25271 -3.3,-0.59831 -11.1,-2.32823 -17.33334,-3.84425 -10.88766,-2.64804 -20.93372,-4.86907 -28,-6.19036 -1.83333,-0.34282 -6.41997,-1.50119 -10.19254,-2.57418 -3.77256,-1.07298 -12.17256,-2.57824 -18.66667,-3.345 -6.49409,-0.76676 -16.00745,-1.94841 -21.14079,-2.62588 -5.13333,-0.67746 -15.33333,-1.87604 -22.66666,-2.66349 -7.33334,-0.78745 -20.23334,-2.26579 -28.66667,-3.28517 -17.14212,-2.07208 -55.83012,-1.80674 -78.66667,0.53952 -7.7,0.79112 -35.3,1.68077 -61.33333,1.97701 -26.03333,0.29624 -48.53333,0.88431 -50,1.30683 -1.46667,0.42252 -5.06667,1.05582 -8,1.40737 -2.93333,0.35153 -13.43333,2.08581 -23.33333,3.85395 -9.9,1.76813 -24.3,3.88809 -32,4.71102 -32.2155,3.443 -49.97588,6.45784 -54.66667,9.27971 -2.56667,1.54404 -6.51031,3.64996 -8.76364,4.67981 -6.54339,2.99059 -13.37757,9.73566 -17.12415,16.90084 -2.62281,5.01604 -4.44917,12.74566 -7.47549,31.63815 -5.67171,35.40701 -6.57684,41.47552 -7.30856,49.00041 -0.35653,3.66667 -1.275,12.36667 -2.04104,19.33334 -0.76603,6.96666 -2.00064,18.96666 -2.74359,26.66666 -0.74293,7.7 -1.92842,19.4 -2.6344,26 -0.70597,6.6 -1.85085,21.6 -2.54417,33.33334 -1.36369,23.07857 -2.14813,33.67309 -4.097,55.33333 -4.8776,54.21096 -5.22059,199.08479 -0.5682,240 1.04232,9.16667 2.15379,26.86667 2.46992,39.33333 0.36841,14.52899 1.61668,28.8896 3.47691,40 1.59617,9.53334 2.82512,19.90082 2.731,23.03886 -0.0941,3.13802 1.41132,14.83802 3.34545,26 2.50193,14.43877 3.28593,22.59874 2.71717,28.28049 -0.89654,8.95632 1.99103,33.85908 5.97008,51.48656 1.42434,6.30992 2.58971,13.69423 2.58971,16.40957 0,5.125 2.06476,15.48674 4.00885,20.11786 0.61568,1.46666 1.48012,7.62288 1.92098,13.68048 0.93478,12.84472 3.86758,28.1112 7.73026,40.2393 2.29611,7.20932 3.99818,9.7562 10.6125,15.8799 8.46633,7.83832 14.87022,12.24172 26.4181,18.16542 4.02012,2.0622 8.95931,4.6076 10.97598,5.6565 2.01666,1.0489 3.66666,2.4632 3.66666,3.1428 0,0.6796 0.87871,1.2357 1.9527,1.2357 1.07397,0 4.82397,1.596 8.33333,3.5467 9.42967,5.2415 9.34624,5.2009 23.04731,11.2045 11.40916,4.9993 30.82428,12.4745 36,13.8607 1.1,0.2946 5.3,1.7066 9.33333,3.1378 36.08043,12.8026 54.57219,17.608 80.66667,20.9628 8.06666,1.037 21.56666,2.8236 30,3.9702 21.59422,2.9359 48.5841,3.4449 52.51273,0.9903 z M -580.9685,965.57662 c -2.49838,-3.01037 1.92397,-8.34448 10.85905,-13.09788 21.17671,-11.26584 24.42019,-12.84054 26.44825,-12.84054 1.21576,0 2.78047,-0.56284 3.47714,-1.25078 1.95596,-1.93141 20.29536,-10.74922 22.35637,-10.74922 1.00668,0 2.85113,1.12797 4.09877,2.50661 2.16083,2.38768 2.09902,2.54913 -1.3027,3.40292 -4.36271,1.09496 -28.00528,12.12533 -46.55571,21.72041 -3.15096,1.62982 -7.97317,5.07982 -10.71604,7.66667 -5.64144,5.32057 -6.28031,5.51535 -8.66513,2.64181 z m 453.33408,-5.88424 c -2.53898,-2.1702 -5.03623,-3.9702 -5.54947,-4 -0.51324,-0.0299 -3.60025,-1.85418 -6.86003,-4.05418 -3.25978,-2.2 -6.54701,-4 -7.30494,-4 -0.75794,0 -2.17092,-0.77027 -3.13996,-1.7117 -6.49132,-6.3063 -43.04114,-21.02861 -53.89651,-21.70956 -1.54069,-0.0967 -3.37053,-0.52754 -4.06633,-0.95757 -1.6397,-1.01339 -34.61755,-6.82904 -58.38031,-10.29537 -10.21968,-1.49078 -18.7838,-2.91307 -19.03139,-3.16064 -0.24757,-0.24759 -0.0719,-1.43603 0.39056,-2.64099 1.30175,-3.39231 1.88988,-3.34069 49.88874,4.37859 17.92734,2.88312 22.46212,3.93886 44,10.24368 20.69148,6.05704 30.01961,9.89506 38.75282,15.94466 3.34738,2.31879 10.04726,6.18734 14.88859,8.59679 10.53015,5.24068 20.57048,13.47853 19.17659,15.73392 -1.54672,2.50263 -3.90808,1.87221 -8.86836,-2.36763 z M -374.25073,276.85262 c -27.23063,-4.92496 -48.01765,-7.73404 -67.33333,-9.09917 -21.75432,-1.53748 -32.19176,-3.04699 -88.66667,-12.82335 -5.5,-0.9521 -14.2,-3.32294 -19.33333,-5.26853 -5.13334,-1.9456 -11.15722,-4.00515 -13.38642,-4.57679 -19.04769,-4.88445 -42.7074,-18.544 -51.07409,-29.4868 -3.91823,-5.12465 -4.35628,-6.4857 -3.60317,-11.19534 0.90328,-5.64887 3.62834,-9.583 8.06368,-11.64138 1.46666,-0.68066 4.16666,-2.10296 6,-3.16066 4.1551,-2.3972 9.26861,-2.43255 12.36188,-0.0855 2.12805,1.61471 1.7414,1.94836 -3.90564,3.37029 -5.89394,1.48411 -13.15094,5.55083 -15.50459,8.68854 -1.6026,2.13648 -0.0164,10.0811 2.58724,12.95805 3.10656,3.43271 19.65879,14.47017 27.12777,18.08952 3.3,1.59912 9.6,3.89821 14,5.10909 4.4,1.2109 11.90751,3.89462 16.68335,5.96383 7.30447,3.16479 22.27441,6.75527 40.64999,9.74971 2.2,0.3585 13.22424,2.17409 24.49829,4.03461 11.27407,1.86053 20.87407,3.29605 21.33333,3.19007 0.45928,-0.106 4.43504,0.23646 8.83504,0.76102 4.4,0.52458 14.9,1.55812 23.33334,2.2968 8.43333,0.73867 18.33333,1.83674 22,2.44012 16.84613,2.77227 38.85442,5.86336 40.66666,5.7117 1.1,-0.092 18.8,-0.44903 39.33334,-0.79326 35.94917,-0.60268 68.93474,-2.44029 74.81612,-4.16796 3.3182,-0.97473 5.2945,2.41598 2.67521,4.5898 -0.92591,0.76844 -7.34025,1.69651 -14.25408,2.06238 -6.91381,0.36585 -17.07059,1.0318 -22.57059,1.47988 -5.5,0.44808 -24.7,0.96844 -42.66666,1.15633 -17.96667,0.18794 -33.56667,0.65454 -34.66667,1.03692 -1.1,0.38239 -4.7,0.20692 -8,-0.38992 z m 163.33333,-8.92581 c -3.42376,-0.73897 -6.15656,-2.9566 -5.31716,-4.31477 0.35942,-0.58155 3.8028,-1.48376 7.65199,-2.00492 8.77248,-1.18776 10.74885,-1.54939 18.99851,-3.47624 9.29298,-2.17056 31.32146,-9.17668 35.33333,-11.23772 3.9798,-2.04458 7.83672,-3.4917 10.93861,-4.1042 1.24958,-0.24675 4.24958,-1.65436 6.66667,-3.12804 2.41709,-1.47368 5.40841,-2.68167 6.64736,-2.6844 1.23896,-0.003 7.38896,-2.73674 13.66667,-6.07555 6.27772,-3.3388 11.41402,-5.40901 11.41402,-4.60045 0,2.97609 -4.12906,9.33768 -6.06073,9.33768 -1.09575,0 -4.36841,1.5 -7.2726,3.33333 -2.90419,1.83333 -6.10921,3.33333 -7.12227,3.33333 -1.01306,0 -6.9634,2.4 -13.22297,5.33334 -6.25956,2.93333 -12.22263,5.33333 -13.25123,5.33333 -1.02861,0 -2.46062,0.59043 -3.18226,1.31207 -1.51582,1.51581 -27.22127,9.44128 -27.22127,8.39281 0,-0.38393 -0.99221,0.12547 -2.20492,1.13187 -1.21272,1.00645 -2.56272,1.66565 -3,1.46488 -0.43729,-0.20078 -3.19508,-0.0156 -6.12841,0.41161 -2.93334,0.42717 -6.85872,0.92901 -8.72307,1.1152 -1.86436,0.1862 -3.96436,0.64541 -4.66667,1.02047 -0.70232,0.37506 -2.47693,0.42293 -3.9436,0.1064 z m 88.66667,-58.96477 c -2.56667,-0.5699 -6.46667,-1.6594 -8.66667,-2.42112 -12.28708,-4.25427 -29.712,-9.5705 -31.39234,-9.5776 -1.06755,-0.004 -3.52328,-0.83382 -5.4572,-1.84287 -5.76926,-3.01024 -15.71279,-5.76675 -29.15046,-8.08099 -6.96666,-1.1998 -19.26666,-3.31422 -27.33333,-4.69873 -8.06667,-1.38449 -16.16667,-2.89343 -18,-3.35316 -1.83333,-0.45975 -5.85199,-0.82396 -8.93035,-0.80936 -3.07836,0.0145 -10.27836,-0.78272 -16,-1.77181 -5.72164,-0.98908 -12.28049,-1.5091 -14.57521,-1.15559 -2.29473,0.35352 -8.48349,-0.0261 -13.7528,-0.84372 -5.26932,-0.81756 -10.20775,-1.09885 -10.97431,-0.62509 -0.76654,0.47374 -16.47778,0.65982 -34.91386,0.41349 -39.5649,-0.52863 -44.11719,-0.49643 -55.52014,0.39263 -4.76666,0.37165 -22.46666,1.09657 -39.33333,1.61094 -35.33884,1.07771 -56.33897,2.55736 -78,5.4958 -28.9606,3.92866 -36,3.67958 -36,-1.27381 0,-1.30344 3.17125,-1.99677 11.66667,-2.55068 6.41666,-0.41837 13.76666,-1.06601 16.33333,-1.43921 2.56667,-0.3732 10.36667,-1.33018 17.33333,-2.12662 6.96667,-0.79645 15.36667,-1.82732 18.66667,-2.29084 3.3,-0.4635 18.3,-0.95485 33.33333,-1.09185 15.03334,-0.13701 36.63334,-0.88012 48,-1.65136 20.02492,-1.35869 104.49903,-1.10991 127.83362,0.37649 33.69334,2.14626 87.2782,11.83418 112.94717,20.42039 10.93724,3.65848 22.43273,7.06077 25.54556,7.56065 3.11283,0.49988 5.96597,1.40446 6.34032,2.01018 0.37435,0.60572 3.22749,1.51116 6.34032,2.0121 7.16313,1.15278 11.81919,4.0208 10.80749,6.65722 -0.42154,1.09853 -1.15225,1.92834 -1.6238,1.84401 -0.47153,-0.0843 -2.95734,-0.6196 -5.52401,-1.18949 z m 66.461449,719.18736 c 4.1462,-1.18551 8.48579,-2.98551 9.64354,-4 1.15774,-1.0145 2.78926,-1.84454 3.62561,-1.84454 0.83633,0 3.92027,-1.25077 6.85317,-2.77948 2.93291,-1.52872 6.86456,-2.94765 8.73703,-3.1532 1.87245,-0.20554 4.44128,-1.29977 5.70849,-2.43161 1.26723,-1.13184 5.90404,-3.74436 10.30404,-5.8056 8.2935798,-3.88524 9.5732798,-4.69856 14.4179958,-9.16344 1.59144,-1.46667 4.99843,-4.09672 7.5711002,-5.84456 4.09006,-2.77875 8.73964,-6.96692 25.70642,-23.15544 2.11362,-2.01667 4.1238,-3.66667 4.46708,-3.66667 0.34328,0 4.34714,-3.76398 8.89747,-8.3644 4.5503,-4.60042 11.2504,-10.75042 14.889,-13.66666 8.0292,-6.43503 12.4772,-11.33912 18.851,-20.78378 2.6669,-3.95184 5.5421,-7.78516 6.3892,-8.51849 0.8472,-0.73333 4.3184,-5.23333 7.7138,-10 3.395405,-4.76667 7.281205,-9.89941 8.635205,-11.40611 1.3539,-1.50669 3.18859,-3.90669 4.07709,-5.33333 3.0989,-4.97632 13.718,-27.31869 13.718,-28.86259 0,-0.85582 1.1342,-3.99548 2.5205,-6.97701 1.3863,-2.98152 4.1867,-12.29868 6.2231,-20.7048 2.0363,-8.40611 5.4121,-20.70611 7.5017,-27.33333 4.3896,-13.92231 7.0983,-37.18686 5.8191,-49.98114 -0.4728,-4.72906 -1.1249,-26.92906 -1.4491,-49.33333 -0.8053,-55.6558 -1.5965,-68.75804 -5.2761,-87.37172 -5.0053,-25.31989 -9.8112,-56.40444 -10.5179,-68.02997 -0.3566,-5.86667 -2.5434,-17.86667 -4.8595,-26.66667 -2.3162,-8.8 -5.0871,-19.53669 -6.1577,-23.85931 -1.0706,-4.32261 -3.2645,-10.28502 -4.8753,-13.24981 -1.6109,-2.96477 -5.04679,-9.4052 -7.63549,-14.31207 -6.684605,-12.67068 -13.775405,-20.76918 -21.701805,-24.7858 -3.758,-1.90433 -8.9535,-5.14612 -11.5455,-7.20396 -3.1831,-2.52716 -7.5256,-4.23901 -13.3794,-5.2743 -4.7666,-0.84303 -12.2666,-2.75138 -16.66663,-4.24078 -9.14322,-3.09497 -23.66456,-2.74058 -34.1947202,0.8345 -3.28172,1.11417 -8.03042996,2.35986 -10.552676,2.76821 -2.52227,0.40835 -8.4859398,1.65172 -13.2525998,2.76305 -4.76667,1.11135 -10.31667,2.36014 -12.33334,2.77511 -2.01666,0.41497 -3.66666,1.31701 -3.66666,2.00453 0,0.68752 -1.95,2.14307 -4.33334,3.23455 -2.38333,1.09149 -6.73333,3.74093 -9.66666,5.88767 -2.93334,2.14673 -6.10866,3.92309 -7.05628,3.94745 -0.94762,0.0244 -2.44762,0.65468 -3.33334,1.40072 -0.8857,0.74604 -3.71038,2.72152 -6.27705,4.38996 l -4.66667,3.03355 0.0253,15.27669 c 0.014,8.40219 0.55342,25.9152 1.19882,38.9178 l 1.17347,23.64111 9.46783,-9.86 c 11.23772,-11.70318 15.3402,-14.11287 29.46784,-17.30864 5.86666,-1.3271 11.85234,-3.03536 13.30152,-3.79616 7.6826098,-4.0333 46.696276,-1.79054 52.698476,3.02946 1.83333,1.47223 4.56708,3.21242 6.07501,3.86707 5.6197,2.4398 13.914,16.31681 13.9409,23.32425 0.01,2.27067 0.9136,7.42848 2.011,11.46182 1.0973,4.03333 2.6057,16.63333 3.352,28 1.8353,27.95465 3.386,42.24808 7.2326,66.66666 4.4092,27.99067 5.8848,50.27219 5.4301,82 -0.4414,30.80164 -2.2502,52.8294 -5.3269,64.87238 -3.5273,13.80612 -6.2359,22.97733 -7.5142,25.44286 -0.6603,1.27339 -1.2005,3.48246 -1.2005,4.90904 0,3.32523 -7.2428,23.00682 -11.056,30.04355 -1.6091,2.96936 -4.8476,7.99297 -7.1966,11.16357 -5.04295,6.80662 -31.30456,36.22894 -32.35535,36.24938 -0.39897,0.008 -5.2254002,4.21194 -10.7254002,9.34262 -20.7450758,19.3521 -51.0658358,33.5538 -62.8597758,29.4424 -2.26226,-0.78862 -4.59346,-1.13704 -5.18044,-0.77426 -0.58699,0.36277 -1.419,5.30558 -1.84892,10.98402 -2.92542,38.63962 -4.06675,50.9094 -6.04546,64.99111 -2.1755,15.48227 -2.21497,15.33333 4.06272,15.33333 3.0038,0 8.8538,-0.96996 13,-2.15546 z m 10.87188,-97.17787 c 1.83334,-1.04803 4.83334,-1.97513 6.66667,-2.06024 1.83333,-0.0851 5.73333,-1.55583 8.66667,-3.26828 2.93333,-1.71245 7.73333,-4.28509 10.66666,-5.71697 2.93334,-1.43188 8.03334,-5.15134 11.3333398,-8.26546 3.3,-3.11412 9.007806,-8.1431 12.684036,-11.17554 6.6885602,-5.51724 19.6604602,-18.78862 26.8347802,-27.45427 2.09799,-2.53409 5.23907,-6.13409 6.9802,-8 3.34436,-3.58404 8.51661,-11.21391 12.42711,-18.3318 3.0237,-5.50379 9.0739,-22.80373 9.0739,-25.94585 0,-1.33111 1.4226,-6.17651 3.1614,-10.76756 4.5799,-12.09275 5.8419,-18.74698 8.9131,-46.99736 3.0716,-28.2537 3.1141,-35.40008 0.4322,-72.68334 -2.1567,-29.98205 -3.8423,-45.51646 -6.6184,-60.99362 -2.4025,-13.39435 -2.8919,-18.12911 -3.858,-37.32814 -0.4148,-8.24364 -1.3413,-16.5327 -2.0589,-18.42013 -0.7176,-1.88744 -1.3142,-5.64264 -1.3257,-8.34491 -0.056,-13.16025 -8.9616,-41.56949 -13.0353,-41.583 -0.51906,-0.001 -2.96069,-1.72697 -5.42582,-3.83389 -4.73067,-4.04325 -7.47396,-4.62781 -29.51795,-6.28984 -10.17306016,-0.76701 -12.6983362,-0.44484 -24.666656,3.14691 -7.33334,2.20076 -15.97318,4.72257 -19.19966,5.60401 -6.596,1.80196 -16.51772,10.43915 -25.75252,22.41839 l -5.71449,7.41277 0.17041,34.10572 c 0.0937,18.75816 0.84119,39.53395 1.66103,46.16843 1.19168,9.64374 1.77017,45.20058 1.78861,109.9373 5.2e-4,1.83334 -0.12746,15.03334 -0.28428,29.33334 -0.15686,14.3 0.1148,32 0.60375,39.33333 0.86867,13.02852 -0.94645,51.37288 -2.74555,58 -0.4977,1.83333 -1.06716,15.45521 -1.26546,30.27085 -0.19831,14.81563 -0.765,27.59192 -1.25932,28.39174 -0.49432,0.79982 -0.17364,2.32794 0.71261,3.39581 2.11596,2.54957 15.45768,2.51052 19.95153,-0.0584 z"
         id="path4273"
         inkscape:connector-curvature="0" />
    </g>
  </g>
</svg>
