<?xml version="1.0" encoding="UTF-8" standalone="no"?>
<!-- Created with Inkscape (http://www.inkscape.org/) -->

<svg
   xmlns:dc="http://purl.org/dc/elements/1.1/"
   xmlns:cc="http://creativecommons.org/ns#"
   xmlns:rdf="http://www.w3.org/1999/02/22-rdf-syntax-ns#"
   xmlns:svg="http://www.w3.org/2000/svg"
   xmlns="http://www.w3.org/2000/svg"
   xmlns:sodipodi="http://sodipodi.sourceforge.net/DTD/sodipodi-0.dtd"
   xmlns:inkscape="http://www.inkscape.org/namespaces/inkscape"
   width="245.83218"
   height="316.96692"
   id="svg5241"
   version="1.1"
   inkscape:version="0.92+devel unknown"
   sodipodi:docname="ReadTheDocs.svg"
   inkscape:export-filename="/Users/anthony/dev/readthedocs/guidelines/assets/logo-wordmark-light.png"
   inkscape:export-xdpi="90"
   inkscape:export-ydpi="90">
  <defs
     id="defs5243" />
  <sodipodi:namedview
     id="base"
     pagecolor="#32322a"
     bordercolor="#666666"
     borderopacity="1.0"
     inkscape:pageopacity="1"
     inkscape:pageshadow="2"
     inkscape:zoom="0.67569868"
     inkscape:cx="722.74781"
     inkscape:cy="44.103903"
     inkscape:document-units="px"
     inkscape:current-layer="g3878"
     showgrid="false"
     inkscape:window-width="1920"
     inkscape:window-height="983"
     inkscape:window-x="0"
     inkscape:window-y="27"
     inkscape:window-maximized="1"
     inkscape:document-rotation="0"
     fit-margin-top="0"
     fit-margin-left="0"
     fit-margin-right="0"
     fit-margin-bottom="0" />
  <metadata
     id="metadata5246">
    <rdf:RDF>
      <cc:Work
         rdf:about="">
        <dc:format>image/svg+xml</dc:format>
        <dc:type
           rdf:resource="http://purl.org/dc/dcmitype/StillImage" />
        <dc:title />
      </cc:Work>
    </rdf:RDF>
  </metadata>
  <g
     inkscape:label="Layer 1"
     inkscape:groupmode="layer"
     id="layer1"
     transform="translate(-52.238293,-693.87875)">
    <g
       id="g5310"
       transform="translate(-7.2877533,-6.3546821e-5)"
       style="fill:#fafafa;fill-opacity:1">
      <g
         inkscape:export-ydpi="90"
         inkscape:export-xdpi="90"
         inkscape:export-filename="/home/anthony/secure/docs/rtd/assets/rtd-logo-2.png"
         transform="matrix(0.55753644,0,0,0.55753644,62.308135,1038.8762)"
         id="g3990"
         style="fill:#fafafa;fill-opacity:1" />
      <g
         id="g3878"
         transform="matrix(8.4462802,0,0,8.4462802,-93.469267,-7827.1593)"
         style="fill:#fafafa;fill-opacity:1">
        <g
           transform="matrix(0.55753644,0,0,0.55753644,68.308135,1050.1262)"
           id="g3857"
           style="fill:#222222;fill-opacity:1">
          <path
             id="path3929-8"
             style="color:#000000;font-style:normal;font-variant:normal;font-weight:normal;font-stretch:normal;font-size:medium;line-height:normal;font-family:Sans;-inkscape-font-specification:Sans;text-indent:0;text-align:start;text-decoration:none;text-decoration-line:none;letter-spacing:normal;word-spacing:normal;text-transform:none;writing-mode:lr-tb;direction:ltr;baseline-shift:baseline;text-anchor:start;display:inline;overflow:visible;visibility:visible;fill:#222222;fill-opacity:1;stroke:none;stroke-width:3.22848845;marker:none;enable-background:accumulate"
             d="M -67.28125,-41.59375 A 1.6144056,1.6144056 0 0 0 -67.5,-38.4375 c 0,0 3.931695,1.301049 10.625,1.84375 5.374689,0.435786 11.46875,-0.375 11.46875,-0.375 a 1.6144056,1.6144056 0 1 0 -0.40625,-3.1875 c 0,0 -5.961605,0.737066 -10.8125,0.34375 C -63.013171,-40.330461 -66.5,-41.5 -66.5,-41.5 a 1.6144056,1.6144056 0 0 0 -0.78125,-0.09375 z m 0,-8 A 1.6144056,1.6144056 0 0 0 -67.5,-46.4375 c 0,0 3.931695,1.301049 10.625,1.84375 5.374689,0.435786 11.46875,-0.375 11.46875,-0.375 a 1.6144056,1.6144056 0 1 0 -0.40625,-3.1875 c 0,0 -5.961605,0.737066 -10.8125,0.34375 C -63.013171,-48.330461 -66.5,-49.5 -66.5,-49.5 a 1.6144056,1.6144056 0 0 0 -0.78125,-0.09375 z m 0,-8 A 1.6144056,1.6144056 0 0 0 -67.5,-54.4375 c 0,0 3.931695,1.301049 10.625,1.84375 5.374689,0.435786 11.46875,-0.375 11.46875,-0.375 a 1.6144056,1.6144056 0 1 0 -0.40625,-3.1875 c 0,0 -5.961605,0.737066 -10.8125,0.34375 C -63.013171,-56.330461 -66.5,-57.5 -66.5,-57.5 a 1.6144056,1.6144056 0 0 0 -0.78125,-0.09375 z m 0,-8 A 1.6144056,1.6144056 0 0 0 -67.5,-62.4375 c 0,0 3.931695,1.301049 10.625,1.84375 5.374689,0.435786 11.46875,-0.375 11.46875,-0.375 a 1.6144056,1.6144056 0 1 0 -0.40625,-3.1875 c 0,0 -5.961605,0.737066 -10.8125,0.34375 C -63.013171,-64.330461 -66.5,-65.5 -66.5,-65.5 a 1.6144056,1.6144056 0 0 0 -0.78125,-0.09375 z m -11.207892,-8.437005 c -8.407221,0.05606 -11.539425,2.645057 -11.539425,2.645057 v 62.7837755 c 0,0 3.05858,-2.6415165 12.905554,-2.2381255 9.846974,0.403391 11.878255,3.8552765 23.979914,4.0983855 12.101659,0.243109 15.143679,-1.86026 15.143679,-1.86026 l 0.174399,-64.0045705 c 0,0 -5.446133,1.541392 -16.044742,1.627727 -10.598609,0.08634 -13.146074,-2.696144 -22.875385,-3.022922 -0.608082,-0.02042 -1.183512,-0.0328 -1.743994,-0.02907 z m 7.034109,4.098386 c 0,0 5.094376,1.68402 14.504214,2.150925 7.953019,0.39462 15.928477,-0.784797 15.928477,-0.784797 v 56.883263 c 0,0 -4.036665,2.1158549 -14.12635,1.395195 -7.819331,-0.558499 -16.422608,-3.517054 -16.422608,-3.517054 z m -4.912249,1.482394 a 1.6277275,1.6277275 0 0 1 0,3.255455 c 0,0 -2.634985,0.01353 -4.243719,0.1744 -2.701025,0.270103 -4.534383,1.249862 -4.534383,1.249862 a 1.6251955,1.6251955 0 1 1 -1.511462,-2.87759 c 0,0 2.391605,-1.26521 5.726113,-1.598661 1.926801,-0.192699 4.563451,-0.203466 4.563451,-0.203466 z m -1.569595,8.022372 c 0.899775,-0.02279 1.569595,0 1.569595,0 a 1.625,1.625 0 0 1 0,3.226388 c 0,0 -2.634985,0.01352 -4.243719,0.174399 -2.701025,0.270104 -4.534383,1.249863 -4.534383,1.249863 a 1.6251955,1.6251955 0 0 1 -1.511462,-2.87759 c 0,0 2.391605,-1.26521 5.726113,-1.598661 0.963401,-0.09635 2.094081,-0.151612 2.993856,-0.174399 z m 1.569595,7.993304 a 1.6277275,1.6277275 0 0 1 0,3.255455 c 0,0 -2.634985,-0.01554 -4.243719,0.145333 -2.701025,0.270103 -4.534383,1.249862 -4.534383,1.249862 a 1.6251952,1.6251952 0 0 1 -1.511462,-2.877589 c 0,0 2.391605,-1.265211 5.726113,-1.598661 1.926801,-0.1927 4.563451,-0.1744 4.563451,-0.1744 z"
             inkscape:connector-curvature="0" />
        </g>
      </g>
    </g>
  </g>
</svg>
