<?xml version="1.0" encoding="UTF-8" standalone="no"?>
<!-- Created with Inkscape (http://www.inkscape.org/) -->

<svg
   xmlns:dc="http://purl.org/dc/elements/1.1/"
   xmlns:cc="http://creativecommons.org/ns#"
   xmlns:rdf="http://www.w3.org/1999/02/22-rdf-syntax-ns#"
   xmlns:svg="http://www.w3.org/2000/svg"
   xmlns="http://www.w3.org/2000/svg"
   xmlns:sodipodi="http://sodipodi.sourceforge.net/DTD/sodipodi-0.dtd"
   xmlns:inkscape="http://www.inkscape.org/namespaces/inkscape"
   version="1.1"
   width="141.83362"
   height="144.83875"
   id="svg2"
   xml:space="preserve"
   sodipodi:docname="Saltstack.svg"
   inkscape:version="0.92+devel unknown"><sodipodi:namedview
     pagecolor="#ffffff"
     bordercolor="#666666"
     inkscape:document-rotation="0"
     borderopacity="1"
     objecttolerance="10"
     gridtolerance="10"
     guidetolerance="10"
     inkscape:pageopacity="0"
     inkscape:pageshadow="2"
     inkscape:window-width="1920"
     inkscape:window-height="983"
     id="namedview21"
     showgrid="false"
     fit-margin-top="0"
     fit-margin-left="0"
     fit-margin-right="0"
     fit-margin-bottom="0"
     inkscape:zoom="3.0870927"
     inkscape:cx="64.768619"
     inkscape:cy="72.766216"
     inkscape:window-x="0"
     inkscape:window-y="27"
     inkscape:window-maximized="1"
     inkscape:current-layer="g16" /><metadata
     id="metadata8"><rdf:RDF><cc:Work
         rdf:about=""><dc:format>image/svg+xml</dc:format><dc:type
           rdf:resource="http://purl.org/dc/dcmitype/StillImage" /><dc:title></dc:title></cc:Work></rdf:RDF></metadata><defs
     id="defs6"><clipPath
       id="clipPath18"><path
         d="M 0,0 H 2887 V 1809.65 H 0 Z"
         id="path20"
         inkscape:connector-curvature="0" /></clipPath></defs><g
     transform="matrix(1.25,0,0,-1.25,-115.69387,212.85)"
     id="g10"><g
       transform="scale(0.1)"
       id="g12"><g
         id="g14"><g
           clip-path="url(#clipPath18)"
           id="g16"><path
             d="m 1797.45,1106.81 v 262.46 l 227.32,131.13 v -262.32 z m -291.74,438.37 -6.77,-4.41 0.13,-6.94 v -78.73 l -115.36,-66.65 237.92,-137.4 -202.47,-116.71 -440.094,254.11 440.094,254.28 127.74,-73.67 z m 274.04,-145.15 -227.32,131.11 227.24,131.2 227.25,-131.2 z m -245.07,-57.63 v 158 l 227.24,-131.13 v -262.46 l -86.27,49.76 -0.66,97.48 -0.24,7.23 -6.42,3.89 z m 107.08,-381.658 0.45,-25.965 21.88,13.953 213.2,133 V 849.395 L 1437.07,595.141 v 508.379 l 202.52,117.02 z m 132.09,98.358 -96.85,-60.358 -0.98,116.628 94.71,-54.76 z m -274.78,355.02 v -51.18 l -44.25,25.51 z M 961.234,1357.71 1401.54,1103.52 V 595.141 L 961.234,849.336 Z m 824.946,341.95 -6.19,3.14 -6.88,-3.14 -190.6,-110.09 -156.71,90.46 -6.2,2.91 -6.95,-2.91 -487.099,-281.28 0.078,-4.4 0.078,-558.01 -0.156,-6.485 6.797,-4.851 483.152,-278.965 3.5,-1.949 4.18,2.019 483.21,278.895 6.06,3.57 0.37,7.844 v 285.372 l -9.1,5.31 149.84,86.64 6.66,4.85 V 1541 l -3.89,2.53 -270.15,156.13"
             id="path40"
             style="fill:#100f0d;fill-opacity:1;fill-rule:nonzero;stroke:none"
             inkscape:connector-curvature="0" /></g></g></g></g></svg>